<svg width="259" height="191" viewBox="0 0 259 191" fill="none" xmlns="http://www.w3.org/2000/svg">
<path d="M131.396 191C171.573 191 204.143 189.215 204.143 187.014C204.143 184.812 171.573 183.027 131.396 183.027C91.2194 183.027 58.6498 184.812 58.6498 187.014C58.6498 189.215 91.2194 191 131.396 191Z" fill="#A2ACFB"/>
<path d="M152.333 154.877H113.481V179.415H152.333V154.877Z" fill="#2E45F7"/>
<path d="M146.528 154.877H107.675V179.415H146.528V154.877Z" fill="#485CF7"/>
<path d="M169.058 186.775H90.1954C90.1957 184.821 90.9724 182.946 92.3547 181.564C93.7371 180.182 95.6119 179.405 97.5667 179.405H161.687C163.642 179.405 165.517 180.182 166.899 181.564C168.281 182.946 169.058 184.821 169.058 186.775Z" fill="#6A7AF7"/>
<path d="M152.333 161.953H107.675V165.395H152.333V161.953Z" fill="#3F50DB"/>
<path d="M223.588 31.6193H44.7049C41.744 31.6193 39.3438 34.0195 39.3438 36.9804V156.697C39.3438 159.657 41.744 162.058 44.7049 162.058H223.588C226.549 162.058 228.949 159.657 228.949 156.697V36.9804C228.949 34.0195 226.549 31.6193 223.588 31.6193Z" fill="#3F50DB"/>
<path d="M218.666 31.6193H39.7829C36.822 31.6193 34.4218 34.0195 34.4218 36.9804V156.697C34.4218 159.657 36.822 162.058 39.7829 162.058H218.666C221.627 162.058 224.027 159.657 224.027 156.697V36.9804C224.027 34.0195 221.627 31.6193 218.666 31.6193Z" fill="#6A7AF7"/>
<path d="M219.331 43.2581V141.887H39.8269V43.2581C39.8287 41.4323 40.5546 39.6817 41.8455 38.3905C43.1364 37.0993 44.8868 36.3729 46.7126 36.3707H212.448C214.273 36.3738 216.023 37.1005 217.313 38.3916C218.604 39.6827 219.329 41.4328 219.331 43.2581Z" fill="#3F50DB"/>
<path d="M216.795 43.2581V139.352H42.3622V43.2581C42.3621 42.6867 42.4745 42.121 42.6931 41.5931C42.9117 41.0652 43.2321 40.5855 43.6361 40.1814C44.04 39.7774 44.5196 39.4569 45.0475 39.2382C45.5754 39.0195 46.1411 38.907 46.7125 38.907H212.448C213.601 38.9081 214.707 39.367 215.522 40.1829C216.337 40.9987 216.795 42.1048 216.795 43.2581Z" fill="#A2ACFB"/>
<path d="M128.228 155.184C127.238 155.184 126.27 154.891 125.446 154.341C124.623 153.79 123.981 153.008 123.602 152.093C123.223 151.178 123.124 150.172 123.317 149.2C123.51 148.229 123.987 147.337 124.687 146.637C125.388 145.936 126.28 145.46 127.251 145.266C128.222 145.073 129.229 145.172 130.144 145.551C131.059 145.93 131.841 146.572 132.391 147.395C132.941 148.219 133.235 149.187 133.235 150.177C133.234 151.505 132.706 152.777 131.767 153.716C130.828 154.655 129.556 155.183 128.228 155.184ZM128.228 145.786C127.36 145.786 126.511 146.044 125.789 146.527C125.067 147.01 124.505 147.696 124.173 148.498C123.84 149.301 123.754 150.184 123.923 151.035C124.093 151.887 124.512 152.669 125.126 153.283C125.74 153.897 126.522 154.315 127.374 154.485C128.226 154.654 129.109 154.567 129.911 154.235C130.713 153.902 131.399 153.34 131.882 152.617C132.364 151.895 132.622 151.047 132.622 150.178C132.621 149.013 132.158 147.896 131.334 147.073C130.51 146.249 129.393 145.786 128.228 145.786Z" fill="white"/>
<g opacity="0.17">
<path d="M158.142 139.352H58.8707C57.1898 108.56 55.5619 68.6385 55.5619 38.907H125.48C135.269 68.9719 147.73 107.309 158.142 139.352ZM216.795 137.369V139.354H187.565L150.634 38.907H184.776C194.54 68.8925 206.682 106.247 216.795 137.369Z" fill="white"/>
</g>
<path d="M249.222 127.657V173.754C249.222 174.335 248.991 174.892 248.581 175.303C248.17 175.714 247.612 175.945 247.031 175.945H207.543C206.961 175.945 206.404 175.714 205.993 175.303C205.582 174.892 205.351 174.335 205.351 173.754V127.656C205.351 127.075 205.582 126.517 205.993 126.106C206.404 125.695 206.961 125.464 207.543 125.464H247.031C247.612 125.465 248.17 125.696 248.581 126.107C248.992 126.519 249.222 127.076 249.222 127.657Z" fill="#384EFE"/>
<path d="M249.222 127.657V131.504H205.351V127.656C205.351 127.075 205.582 126.517 205.993 126.106C206.404 125.695 206.961 125.464 207.543 125.464H247.031C247.612 125.465 248.17 125.696 248.581 126.107C248.992 126.519 249.222 127.076 249.222 127.657Z" fill="#2C44FF"/>
<path d="M240.542 128.484C240.542 128.685 240.482 128.881 240.371 129.048C240.259 129.215 240.101 129.346 239.915 129.423C239.729 129.5 239.525 129.52 239.328 129.481C239.131 129.442 238.95 129.345 238.808 129.203C238.666 129.061 238.569 128.88 238.529 128.683C238.49 128.486 238.51 128.282 238.587 128.096C238.664 127.91 238.794 127.752 238.961 127.64C239.128 127.528 239.325 127.469 239.526 127.469C239.795 127.469 240.053 127.576 240.244 127.766C240.434 127.956 240.541 128.214 240.542 128.484ZM243.831 128.484C243.831 128.684 243.772 128.881 243.66 129.048C243.549 129.214 243.39 129.345 243.205 129.421C243.019 129.498 242.815 129.518 242.618 129.479C242.421 129.44 242.241 129.343 242.099 129.201C241.957 129.059 241.86 128.879 241.821 128.682C241.782 128.485 241.802 128.281 241.879 128.095C241.955 127.91 242.086 127.751 242.252 127.64C242.419 127.528 242.616 127.469 242.816 127.469C243.086 127.469 243.344 127.576 243.534 127.766C243.724 127.956 243.831 128.214 243.831 128.484ZM246.982 128.484C246.982 128.685 246.923 128.881 246.811 129.048C246.7 129.215 246.541 129.346 246.355 129.423C246.17 129.5 245.965 129.52 245.768 129.481C245.571 129.442 245.39 129.345 245.248 129.203C245.106 129.061 245.009 128.88 244.97 128.682C244.931 128.485 244.951 128.281 245.028 128.095C245.105 127.91 245.235 127.751 245.403 127.639C245.57 127.528 245.766 127.468 245.967 127.469C246.236 127.469 246.494 127.576 246.685 127.766C246.875 127.956 246.982 128.214 246.982 128.484Z" fill="white"/>
<path d="M230.491 150.103H223.674V169.912H230.491V150.103Z" fill="#4A5EFF"/>
<path d="M223.674 164.687C226.089 164.182 228.353 163.274 230.491 162.299V169.91H223.674V164.687Z" fill="#001DFF"/>
<path d="M219.348 155.608H212.531V169.913H219.348V155.608Z" fill="#4A5EFF"/>
<path d="M218.087 165.022C218.512 165.065 218.933 165.092 219.348 165.105V169.916H212.531V165.151C213.738 164.877 215.503 164.767 218.087 165.022Z" fill="#001DFF"/>
<path d="M241.633 144.185H234.816V169.912H241.633V144.185Z" fill="#4A5EFF"/>
<path d="M241.633 158.285V169.912H234.816V160.258C237.239 159.143 239.498 158.279 241.633 158.285Z" fill="#001DFF"/>
<path d="M241.357 136.685L235.205 137.58L236.86 138.678L227.441 145.19L224.132 142.991L212.448 151.072C212.001 151.381 212.009 151.876 212.463 152.178C212.918 152.481 213.648 152.476 214.094 152.168L224.168 145.203L227.476 147.402L238.505 139.773L240.159 140.873L241.357 136.685Z" fill="#2C44FF"/>
<path d="M47.2775 101.303C55.311 93.269 55.311 80.2442 47.2775 72.2107C39.244 64.1772 26.2192 64.1772 18.1857 72.2107C10.1522 80.2442 10.1522 93.269 18.1857 101.303C26.2192 109.336 39.244 109.336 47.2775 101.303Z" fill="#303FB4"/>
<path d="M45.5709 100.006C53.186 92.3912 53.186 80.0446 45.5709 72.4295C37.9557 64.8143 25.6091 64.8143 17.994 72.4295C10.3789 80.0446 10.3789 92.3912 17.994 100.006C25.6092 107.621 37.9557 107.621 45.5709 100.006Z" fill="#394FF9"/>
<path d="M43.3095 97.745C49.6757 91.3788 49.6758 81.057 43.3095 74.6908C36.9433 68.3245 26.6215 68.3245 20.2553 74.6908C13.889 81.057 13.889 91.3788 20.2553 97.745C26.6215 104.111 36.9432 104.111 43.3095 97.745Z" fill="white"/>
<path d="M41.1886 95.6241C46.3835 90.4292 46.3835 82.0066 41.1886 76.8117C35.9937 71.6168 27.5712 71.6168 22.3763 76.8117C17.1814 82.0066 17.1814 90.4292 22.3763 95.6241C27.5712 100.819 35.9937 100.819 41.1886 95.6241Z" fill="#394FF9"/>
<path d="M38.2231 92.6585C41.7801 89.1015 41.7801 83.3343 38.2231 79.7773C34.666 76.2202 28.8989 76.2202 25.3419 79.7773C21.7848 83.3343 21.7848 89.1015 25.3419 92.6585C28.8989 96.2156 34.666 96.2156 38.2231 92.6585Z" fill="white"/>
<path d="M37.8329 87.3295C38.2916 84.0658 36.0177 81.0483 32.754 80.5896C29.4904 80.1309 26.4728 82.4048 26.0141 85.6685C25.5554 88.9321 27.8293 91.9497 31.093 92.4084C34.3567 92.8671 37.3742 90.5932 37.8329 87.3295Z" fill="#394FF9"/>
<path d="M33.8268 88.2622C34.9558 87.1332 34.9558 85.3026 33.8268 84.1736C32.6977 83.0445 30.8672 83.0445 29.7382 84.1736C28.6091 85.3026 28.6091 87.1332 29.7382 88.2622C30.8672 89.3913 32.6977 89.3913 33.8268 88.2622Z" fill="white"/>
<path d="M32.5192 87.6126C33.2891 87.2056 33.5833 86.2517 33.1764 85.4819C32.7694 84.712 31.8155 84.4178 31.0456 84.8247C30.2758 85.2317 29.9816 86.1856 30.3885 86.9554C30.7954 87.7253 31.7494 88.0195 32.5192 87.6126Z" fill="#394FF9"/>
<path d="M4.34615 73.9094L7.30342 73.4329L5.85995 74.8317L13.4645 79.4641L18.7181 78.2233L5.1411 69.9512L0 71.2623L4.34615 73.9094Z" fill="#2B39A5"/>
<path d="M5.14112 69.9538L18.7181 78.2259L17.4095 72.9888L14.0179 70.9208C13.7697 71.748 13.5356 72.8358 13.4877 72.758C13.4397 72.6803 13.0476 71.4188 12.605 70.0605L3.9458 64.7854L5.14112 69.9538Z" fill="#2B39A5"/>
<path d="M31.9584 86.9438C32.111 86.9066 32.2492 86.825 32.3555 86.7093C32.4618 86.5936 32.5314 86.449 32.5556 86.2937C32.5798 86.1385 32.5574 85.9796 32.4913 85.837C32.4252 85.6945 32.3183 85.5747 32.1842 85.4929L5.80202 69.426C5.62218 69.3208 5.40822 69.2904 5.2062 69.3414C5.00418 69.3924 4.83025 69.5206 4.72183 69.6985C4.61341 69.8765 4.57917 70.0898 4.62648 70.2927C4.6738 70.4956 4.79888 70.6719 4.97481 70.7835L31.357 86.8503C31.4461 86.9049 31.5451 86.9412 31.6483 86.9573C31.7515 86.9733 31.8569 86.9687 31.9584 86.9438Z" fill="#1A32EC"/>
<path d="M254.194 19.5463H215.59C213.415 19.5463 211.653 21.3088 211.653 23.483V45.5041C211.653 47.6782 213.415 49.4408 215.59 49.4408H254.194C256.368 49.4408 258.131 47.6782 258.131 45.5041V23.483C258.131 21.3088 256.368 19.5463 254.194 19.5463Z" fill="#1930E7"/>
<path d="M231.831 40.7066C235.262 37.2749 235.262 31.711 231.831 28.2793C228.399 24.8476 222.835 24.8476 219.403 28.2793C215.972 31.711 215.972 37.2749 219.403 40.7066C222.835 44.1383 228.399 44.1383 231.831 40.7066Z" fill="#3E54FF"/>
<path d="M232.429 28.9424C231.606 27.9299 230.567 27.1138 229.389 26.5537C228.211 25.9936 226.922 25.7035 225.617 25.7047V34.493L232.429 28.9424Z" fill="#5264F4"/>
<path d="M232.429 28.9425L225.617 34.4931L229.961 42.1307C231.071 41.4994 232.03 40.6337 232.772 39.5938C233.514 38.5538 234.019 37.3647 234.254 36.1092C234.489 34.8538 234.448 33.5622 234.133 32.3245C233.817 31.0867 233.236 29.9326 232.429 28.9425Z" fill="#2739CC"/>
<path d="M220.649 41.7409C222.008 42.673 223.602 43.2038 225.249 43.2727C226.895 43.3416 228.528 42.9458 229.961 42.1305L225.617 34.4929L220.649 41.7409Z" fill="#323B81"/>
<path d="M217.505 37.8762C218.159 39.4397 219.251 40.7815 220.648 41.7409L225.616 34.4929L217.505 37.8762Z" fill="white"/>
<path d="M239.264 25.493H237.371V27.3865H239.264V25.493Z" fill="#5264F4"/>
<path d="M250.276 26.9431H240.681C240.547 26.9431 240.419 26.89 240.324 26.7955C240.23 26.7011 240.177 26.5729 240.177 26.4393C240.177 26.3732 240.19 26.3077 240.215 26.2465C240.241 26.1854 240.278 26.1299 240.324 26.0831C240.371 26.0363 240.427 25.9992 240.488 25.9739C240.549 25.9486 240.615 25.9355 240.681 25.9355H250.276C250.342 25.9355 250.408 25.9486 250.469 25.9739C250.53 25.9992 250.586 26.0363 250.632 26.0831C250.679 26.1299 250.716 26.1854 250.742 26.2465C250.767 26.3077 250.78 26.3732 250.78 26.4393C250.78 26.5729 250.727 26.7011 250.632 26.7955C250.538 26.89 250.41 26.9431 250.276 26.9431Z" fill="#FEFEFE"/>
<path d="M239.264 29.519H237.371V31.4125H239.264V29.519Z" fill="#2739CC"/>
<path d="M250.276 30.9698H240.681C240.615 30.9698 240.549 30.9568 240.488 30.9315C240.427 30.9062 240.371 30.8691 240.324 30.8223C240.278 30.7755 240.241 30.72 240.215 30.6588C240.19 30.5977 240.177 30.5322 240.177 30.4661C240.177 30.3324 240.23 30.2043 240.324 30.1098C240.419 30.0154 240.547 29.9623 240.681 29.9623H250.276C250.41 29.9623 250.538 30.0154 250.632 30.1098C250.727 30.2043 250.78 30.3324 250.78 30.4661C250.78 30.5322 250.767 30.5977 250.742 30.6588C250.716 30.72 250.679 30.7755 250.632 30.8223C250.586 30.8691 250.53 30.9062 250.469 30.9315C250.408 30.9568 250.342 30.9698 250.276 30.9698Z" fill="#FEFEFE"/>
<path d="M239.264 33.5458H237.371V35.4393H239.264V33.5458Z" fill="#323B81"/>
<path d="M250.276 34.9968H240.681C240.547 34.9968 240.419 34.9437 240.324 34.8492C240.23 34.7548 240.177 34.6266 240.177 34.493C240.177 34.3594 240.23 34.2313 240.324 34.1368C240.419 34.0423 240.547 33.9893 240.681 33.9893H250.276C250.41 33.9893 250.538 34.0423 250.632 34.1368C250.727 34.2313 250.78 34.3594 250.78 34.493C250.78 34.6266 250.727 34.7548 250.632 34.8492C250.538 34.9437 250.41 34.9968 250.276 34.9968Z" fill="#FEFEFE"/>
<path d="M239.264 37.5726H237.371V39.4661H239.264V37.5726Z" fill="white"/>
<path d="M250.276 39.0237H240.681C240.547 39.0237 240.419 38.9706 240.324 38.8761C240.23 38.7816 240.177 38.6535 240.177 38.5199C240.177 38.3863 240.23 38.2581 240.324 38.1637C240.419 38.0692 240.547 38.0161 240.681 38.0161H250.276C250.41 38.0161 250.538 38.0692 250.632 38.1637C250.727 38.2581 250.78 38.3863 250.78 38.5199C250.78 38.6535 250.727 38.7816 250.632 38.8761C250.538 38.9706 250.41 39.0237 250.276 39.0237Z" fill="#FEFEFE"/>
<path d="M239.264 41.5996H237.371V43.4931H239.264V41.5996Z" fill="#3E54FF"/>
<path d="M250.276 43.0546H240.681C240.547 43.0546 240.419 43.0016 240.324 42.9071C240.23 42.8126 240.177 42.6845 240.177 42.5509C240.177 42.4172 240.23 42.289 240.324 42.1943C240.419 42.0997 240.547 42.0465 240.681 42.0463H250.276C250.41 42.0465 250.538 42.0997 250.633 42.1943C250.727 42.289 250.78 42.4172 250.78 42.5509C250.78 42.6845 250.727 42.8126 250.632 42.9071C250.538 43.0016 250.41 43.0546 250.276 43.0546Z" fill="#FEFEFE"/>
<path d="M131.104 37.8489C131.104 37.8489 128.561 34.8338 125.431 34.6352C122.3 34.4367 120.255 35.2846 120.255 35.2846L119.649 37.6082C119.649 37.6082 131.401 40.3438 131.383 40.1726C131.366 40.0013 131.104 37.8489 131.104 37.8489Z" fill="#2031BB"/>
<path d="M85.0759 52.8489C85.8973 59.8429 91.8119 63.9798 91.8119 63.9798C98.9813 66.5822 103.238 75.0106 103.238 75.0106C103.458 75.0677 122.452 80.0061 128.262 69.1002C130.648 64.6225 131.559 58.5946 131.802 53.0284C132.154 44.9531 131.102 37.8474 131.102 37.8474C131.102 37.8474 123.574 38.1022 120.253 35.2831L114.297 58.1314L110.859 57.3671L93.8477 53.5884C93.8477 53.5884 89.7612 52.4104 85.0759 52.8489Z" fill="#1D35F6"/>
<path d="M110.857 57.3654C110.862 63.6521 116.435 65.5225 116.521 65.5547C113.125 62.8249 114.279 58.1975 114.295 58.1338L110.857 57.3654Z" fill="#1F34DA"/>
<path d="M131.803 53.0282C131.56 58.5953 130.649 64.6232 128.264 69.1C122.42 80.0697 103.238 75.0113 103.238 75.0113C103.238 75.0113 98.6885 67.5143 91.8127 63.9796C92.0204 64.0764 105.379 70.3045 114.726 69.622C124.15 68.9346 131.749 53.053 131.749 53.053L131.803 53.0282Z" fill="#1F34DA"/>
<path d="M120.568 31.7218L128.42 34.2473C128.42 34.2473 128.351 32.5416 128.872 32.0221C129.393 31.5026 132.584 30.5977 133.029 28.9854C133.297 28.0239 133.418 27.0274 133.387 26.0298C133.387 26.0298 135.2 22.7524 136.63 21.2593C138.06 19.7662 137.054 19.4792 135.766 19.7769C134.478 20.0747 132.657 22.0658 132.657 22.0658C132.657 22.0658 132.58 16.8544 131.96 16.8172C131.339 16.78 130.606 16.9826 130.471 19.8018C130.471 19.8018 130.18 17.7271 129.141 18.0588C128.101 18.3905 128.873 24.3986 128.873 24.3986L126.077 25.4739C126.077 25.4739 125.981 21.7978 124.815 21.4479C123.65 21.098 123.237 21.7565 123.589 22.6316C123.942 23.5068 124.426 25.3565 123.229 26.2954C122.032 27.2342 120.573 28.5536 120.568 31.7218Z" fill="#A9B2FB"/>
<path d="M131.696 26.2424H131.68C131.65 26.2386 131.623 26.2242 131.603 26.2019C131.583 26.1796 131.571 26.1508 131.571 26.1208C131.549 25.9214 130.832 22.2552 130.354 19.8274C130.351 19.8111 130.351 19.7943 130.354 19.7781C130.358 19.7618 130.364 19.7464 130.373 19.7326C130.383 19.7189 130.395 19.7071 130.409 19.6979C130.422 19.6888 130.438 19.6824 130.454 19.6793C130.47 19.6761 130.487 19.6762 130.504 19.6796C130.52 19.6829 130.535 19.6894 130.549 19.6987C130.563 19.708 130.574 19.7199 130.584 19.7337C130.593 19.7476 130.599 19.7631 130.602 19.7794C131.836 26.0323 131.827 26.1084 131.823 26.134C131.819 26.1647 131.804 26.1928 131.781 26.2129C131.757 26.2329 131.727 26.2434 131.696 26.2424ZM129.43 27.13C129.402 27.13 129.374 27.1203 129.351 27.1024C129.329 27.0845 129.314 27.0595 129.308 27.0315L128.756 24.4242C128.749 24.3913 128.755 24.357 128.774 24.3288C128.792 24.3006 128.821 24.2809 128.854 24.274C128.887 24.2671 128.921 24.2736 128.949 24.2919C128.977 24.3103 128.997 24.3391 129.004 24.3721L129.555 26.9794C129.562 27.0118 129.556 27.0455 129.538 27.0733C129.52 27.1011 129.491 27.1205 129.459 27.1275L129.43 27.13ZM124.148 30.0872H124.129C124.113 30.085 124.098 30.0796 124.083 30.0713C124.069 30.063 124.057 30.052 124.047 30.039C124.037 30.0259 124.03 30.011 124.026 29.9951C124.022 29.9793 124.021 29.9628 124.023 29.9466C124.416 27.1788 127.13 27.1341 127.158 27.1341C127.175 27.1321 127.193 27.1338 127.21 27.1391C127.227 27.1444 127.242 27.1532 127.255 27.1649C127.268 27.1766 127.279 27.191 127.286 27.2071C127.293 27.2232 127.297 27.2406 127.297 27.2582C127.297 27.2758 127.293 27.2932 127.286 27.3093C127.279 27.3254 127.268 27.3397 127.255 27.3514C127.242 27.3632 127.227 27.372 127.21 27.3773C127.193 27.3826 127.175 27.3843 127.158 27.3823C127.054 27.3823 124.631 27.4302 124.269 29.9814C124.265 30.0105 124.25 30.037 124.228 30.0564C124.205 30.0757 124.177 30.0866 124.148 30.0872Z" fill="#8A96F7"/>
<path d="M132.66 22.0658L133.387 26.0265C133.387 26.0265 135.2 22.7491 136.63 21.256C138.06 19.7629 137.054 19.4792 135.766 19.7769C134.478 20.0747 132.66 22.0658 132.66 22.0658Z" fill="#7F8CF3"/>
<path d="M129.222 33.1041L128.749 37.7935C126.254 37.6372 122.386 37.0945 120.255 35.2846L120.482 31.6589C123.275 32.3588 129.222 33.1041 129.222 33.1041Z" fill="white"/>
<path d="M200.738 122.401H152.642V139.366H200.738V122.401Z" fill="#1E2451"/>
<path d="M173.549 54.0151C178.278 55.2724 189.095 50.4688 190.499 45.2748C188.146 44.4889 186.687 38.9152 186.687 38.9152C186.687 38.9152 185.364 30.3892 185.481 29.5487C182.503 30.3263 177.457 36.3591 173.587 37.4229C173.351 40.2056 173.386 44.9828 171.332 45.063C171.418 48.1832 168.818 52.7585 173.549 54.0151Z" fill="#A9B2FB"/>
<path d="M173.47 39.084C176.175 39.0377 178.471 38.04 181.584 34.8867C181.04 38.6489 177.675 42.0834 173.182 42.0082L173.47 39.084Z" fill="#8A96F7"/>
<path d="M106.884 84.6691C106.222 85.4707 105.706 86.8976 105.595 88.4594C105.437 90.6722 105.824 92.3026 106.577 94.4053C106.577 94.4053 107.348 94.4269 108.396 94.4269C109.445 94.4269 110.021 94.6279 110.506 94.7701C111.795 95.1515 112.16 95.5146 113.277 96.2401C114.281 96.8911 122.289 100.595 123.793 100.845C125.152 101.069 125.849 101.254 126.59 101.176C127.693 101.062 129.316 100.556 128.344 99.0485C130.169 100.068 132.227 99.4621 132.082 97.8349C133.061 98.6051 134.745 98.7027 135.609 97.8101C135.982 97.4222 135.78 96.6628 135.585 96.1938C132.726 89.3015 131.069 89.3618 123.155 85.9951C120.545 84.8842 118.666 84.2935 115.954 84.2489C113.684 84.2125 108.137 84.4151 106.884 84.6691Z" fill="#7F8CF3"/>
<path d="M122.371 101.051C122.721 100.893 123.076 100.729 123.347 100.472C123.617 100.215 123.788 99.8318 123.687 99.4794C123.374 98.404 121.668 98.5546 120.791 98.6621L121.288 98.1997C121.586 97.9201 121.906 97.5967 121.909 97.2013C121.909 96.8993 121.716 96.6164 121.456 96.4377C121.183 96.2669 120.876 96.1582 120.557 96.1193C120.219 96.064 119.876 96.0454 119.534 96.0638C119.47 96.0638 118.91 96.0746 118.899 96.0854C119.167 95.8149 119.418 95.5171 119.543 95.1672C119.874 94.2291 118.949 93.5127 117.992 93.5657C117.491 93.5938 117.018 93.7882 116.567 93.9958C115.135 94.6576 113.457 95.4608 112.609 96.7744C112.375 97.1376 112.195 97.624 112.481 97.9929C112.796 98.4015 113.347 98.6381 113.868 98.7142C114.542 98.8118 115.228 98.6878 115.897 98.5637C115.588 98.8822 115.54 99.3793 115.722 99.7747C116.183 100.78 117.541 100.685 118.518 100.557C118.425 100.834 118.617 101.136 118.881 101.289C120.002 101.935 121.277 101.546 122.371 101.051ZM131.706 84.0958C129.68 83.5292 127.681 82.8186 125.584 82.5837C124.961 82.5142 124.317 82.4885 123.716 82.6581C123.061 82.8426 122.505 83.2438 121.979 83.6508C120.23 85.0042 118.624 86.5319 117.185 88.2103C117.097 88.3027 117.024 88.4092 116.971 88.5255C116.869 88.7927 116.994 89.1045 117.22 89.2956C117.445 89.4867 117.745 89.5794 118.047 89.6265C119.312 89.8184 120.579 89.2675 121.615 88.5611C122.215 88.1516 122.794 87.6751 123.51 87.4857C124.356 87.2648 125.257 87.4857 126.088 87.7504C128.178 88.4196 130.04 89.2146 131.26 90.0715C131.839 90.4802 132.77 91.7955 133.722 93.2389C134.333 94.1646 135.588 96.1929 135.588 96.1929L140.663 94.4152C140.357 92.1412 140.049 89.8614 139.51 87.623C139.318 86.8239 138.786 84.5871 138.786 84.5871C138.786 84.5871 137.214 84.7576 136.278 84.6963C134.945 84.6103 132.975 84.4507 131.706 84.0958Z" fill="#A9B2FB"/>
<path d="M141.541 82.6017L137.67 84.0675L140.491 96.1563L145.02 94.8022L141.541 82.6017Z" fill="white"/>
<path d="M158.844 53.2417L149.841 77.335L140.319 82.5836L144.014 96.3037L154.147 93.047L158.844 53.2417Z" fill="#1425A9"/>
<path d="M171.336 45.0621L162.226 48.8251C162.226 48.8251 157.367 65.4098 156.577 82.6737C155.788 99.9375 156.262 122.401 156.262 122.401C164.581 125.401 181.161 123.905 197.76 122.401V50.0643L188.705 43.8445C188.705 43.8445 175.405 49.0609 173.17 48.8251C170.936 48.5894 171.336 45.0621 171.336 45.0621Z" fill="white"/>
<path d="M197.756 65.8722L176.689 70.2622C173.984 86.0619 173.362 113.36 171.428 116.121C168.279 120.619 163.469 121.461 156.159 118.303C156.201 120.936 156.258 122.401 156.258 122.401C164.576 125.401 181.157 123.905 197.756 122.401V65.8722Z" fill="#CBCBCB"/>
<path d="M152.641 122.402L158.854 124.871C158.854 124.871 159.124 101.64 159.124 93.9462C159.124 86.2523 160.488 71.3882 162.919 62.0325C164.466 56.0766 166.255 52.2532 168.111 49.353C169.173 47.6936 170.257 46.3387 171.331 45.0631L172.562 43.0604C172.562 43.0604 169.599 44.0225 165.426 45.9499C161.254 47.8773 159.756 49.6814 158.153 56.103C154.019 72.6637 153.048 106.852 152.641 122.402Z" fill="#0019DF"/>
<path d="M173.166 46.8804L172.288 46.5288C172.288 46.5288 170.028 47.2493 169.647 49.4389C169.265 51.6286 170.021 54.221 170.021 54.221L172.533 54.6346C172.533 54.6346 174.329 52.0885 174.932 51.2232C175.534 50.358 173.166 46.8804 173.166 46.8804Z" fill="#2338DC"/>
<path d="M161.565 86.9793C161.685 88.8943 162.157 93.2371 162.848 96.8876C163.44 100.02 164.193 102.643 165.026 102.788C166.828 103.102 170.825 91.0624 171.234 88.4451C171.642 85.8278 172.532 54.6321 172.532 54.6321L170.021 54.2185C167.54 60.6964 161.342 83.4157 161.565 86.9793Z" fill="#2338DC"/>
<path d="M172.288 46.5288C172.491 45.1027 173.182 42.0123 173.182 42.0123C173.182 42.0123 173.031 41.9461 172.562 42.406C171.398 43.5501 168.517 46.3477 167.913 48.1593C166.589 52.1299 167.301 54.5412 167.301 54.5412C167.301 54.5412 169.201 49.8377 172.288 46.5288ZM173.166 46.8804C173.166 46.8804 181.1 46.2186 186.687 38.9152L186.558 38.088C186.558 38.088 187.528 37.6181 187.799 38.7258C188.069 39.8334 192.522 43.8462 192.522 43.8462C192.522 43.8462 187.317 53.3715 175.219 55.7828C175.052 51.2596 173.166 46.8804 173.166 46.8804Z" fill="#C7CDFF"/>
<path d="M162.848 96.8843C163.44 100.017 164.193 102.64 165.026 102.785C166.828 103.099 170.825 91.0591 171.234 88.4418C171.642 85.8245 172.533 54.6288 172.533 54.6288L170.021 54.2152C170.021 54.2152 169.672 90.1252 166.206 94.7972C165.419 95.8602 164.222 96.4922 162.848 96.8843Z" fill="#1228D2"/>
<path d="M174.985 125.43L200.738 122.402C200.738 122.402 197.849 92.2684 198.504 83.6498C199.16 75.0311 200.542 46.8795 200.542 46.8795C200.542 46.8795 194.267 44.986 190.011 41.4902C189.324 44.2837 183.577 49.7044 179.944 59.6508C176.312 69.5971 175.282 75.0062 174.737 88.4145C174.668 90.0954 174.623 91.993 174.596 94.0172C174.419 107.069 174.985 125.43 174.985 125.43Z" fill="#0019DF"/>
<path d="M174.597 94.0172C175.197 88.5766 182.616 76.6301 182.616 76.6301L183.085 58.6184L190.022 52.4789L190.012 41.4902C189.325 44.2837 183.578 49.7044 179.945 59.6508C176.313 69.5971 175.283 75.0062 174.738 88.4145C174.669 90.0954 174.624 91.993 174.597 94.0172Z" fill="#2B3CC3"/>
<path d="M190.158 45.4021C190.197 47.1732 190.269 50.7103 190.293 52.4789C188.116 54.6429 185.726 56.7373 183.453 58.8533L183.52 58.7119C183.428 63.1788 183.185 72.1739 183.036 76.64C180.62 80.6362 177.897 84.5514 175.985 88.8074C177.629 84.6581 180.437 80.1217 182.615 76.6301C182.705 72.116 182.938 63.13 183.084 58.6184C185.304 56.653 188.006 54.1217 190.023 52.4789C190.046 50.7227 190.118 47.1599 190.158 45.4021Z" fill="#000F82"/>
<path d="M200.543 46.8796C204.086 48.4042 206.617 51.5219 208.162 55.7812C209.707 60.0405 218.171 90.2337 219.102 93.4126C220.033 96.5916 220.854 99.2858 216.733 104.974C212.612 110.662 187.284 125.747 187.284 125.747L178.455 109.226L198.898 94.4185C198.898 94.4185 192.568 72.0897 192.039 68.7171C191.51 65.3446 193.291 51.8503 200.543 46.8796Z" fill="#1425A9"/>
<path d="M93.4292 51.4822C98.0351 52.7337 99.4678 55.3428 100.506 58.9213C101.544 62.4998 102.59 69.3052 102.59 69.3052L93.4292 51.4822Z" fill="#1F34DA"/>
<path d="M67.3606 49.5838C69.1432 54.6769 87.3187 67.104 91.9452 65.5489C96.5718 63.9937 89.0872 53.939 87.0184 50.0147C83.784 49.4216 83.4928 43.4029 83.3646 39.9493L71.5545 38.7622C71.3891 42.641 69.6139 47.4694 67.3606 49.5838Z" fill="#A9B2FB"/>
<path d="M106.543 123.223V139.366H55.7333C55.9268 134.207 56.2801 126.684 56.7855 123.223H106.543Z" fill="#4E5AB7"/>
<path d="M69.3407 47.6919L80.216 54.116C84.6002 55.8258 88.0034 53.7959 86.4523 49.7442L91.8656 51.0992C91.8656 51.0992 100.194 64.9218 102.068 72.2236C103.941 79.5254 105.19 123.224 105.19 123.224C99.9416 127.54 79.0505 125.039 58.3322 123.224C58.3322 123.224 62.316 99.471 62.9406 94.7981C63.5651 90.1252 57.735 68.7088 56.7986 64.4255C55.8622 60.1422 55.5495 57.5142 56.7986 55.8589C58.0476 54.2037 69.3407 47.6919 69.3407 47.6919Z" fill="white"/>
<path d="M105.086 120.668C99.9211 122.433 92.999 122.29 92.0708 120.772C90.8854 118.832 92.0708 102.791 92.0708 102.791L104.479 97.4203C104.368 95.4648 104.245 93.4307 104.11 91.3966L77.6394 93.9254L62.9341 92.85C62.9945 93.6507 63.0019 94.3191 62.9341 94.8006C62.3095 99.4735 58.3257 123.226 58.3257 123.226C79.0415 125.042 99.9343 127.542 105.184 123.226C105.192 123.223 105.159 122.275 105.086 120.668Z" fill="#CBCBCB"/>
<path d="M60.1413 95.6765C58.8029 100.455 56.7854 123.223 56.7854 123.223C62.4253 125.657 67.2297 127.048 74.1567 127.599C78.9976 127.986 84.1188 127.961 89.4717 127.599C89.4717 127.599 89.8216 113.13 89.4328 99.9813C89.4328 99.9689 89.4328 99.9557 89.4328 99.9433C89.3286 96.4334 89.1714 93.0196 88.9414 90.0002C87.8454 75.6647 86.9909 73.6869 82.7837 65.6803C77.909 56.4073 69.3829 46.5718 69.3829 46.5718C60.2497 52.2795 54.5445 55.3402 54.3004 57.3892C54.0564 59.4382 55.274 68.0271 57.5861 76.4381C58.5299 79.8752 59.353 82.9169 59.9023 85.6384C60.7022 89.58 60.933 92.8525 60.1413 95.6765Z" fill="#1D35F6"/>
<path d="M56.7854 123.224C62.4253 125.658 67.2297 127.049 74.1568 127.6C74.448 124.958 74.9443 121.045 75.7235 116.566C77.1149 108.566 88.7438 100.454 89.4329 99.9789L89.4643 99.9574L89.4312 99.9409L59.9048 85.6393C60.7022 89.5801 60.933 92.8501 60.1414 95.6766C58.803 100.455 56.7854 123.224 56.7854 123.224Z" fill="#1F34DA"/>
<path d="M86.4541 49.7443C91.9352 55.5918 97.7546 65.4753 99.0608 72.6935C100.367 79.9117 101.437 126.526 101.437 126.526C104.109 125.781 106.127 124.799 106.543 123.224C106.543 123.224 105.022 83.4663 104.073 75.0262C103.123 66.5862 93.4291 51.4822 93.4291 51.4822L86.4541 49.7443Z" fill="#1D35F6"/>
<path d="M101.903 85.0503L107.063 84.6558C107.063 84.6558 106 86.9794 106.147 90.0078C106.295 93.0362 107.062 94.8958 107.062 94.8958L102.06 95.8057C102.06 95.8057 101.287 94.1761 101.103 90.7688C100.92 87.3616 101.903 85.0503 101.903 85.0503Z" fill="white"/>
<path d="M55.1806 56.136C53.0588 58.1569 52.8553 61.2457 55.1806 72.1251C57.5059 83.0046 65.0509 97.0456 66.3802 99.8432C67.7095 102.641 69.7047 104.299 75.9096 103.055C82.1145 101.812 102.834 96.6163 102.834 96.6163C101.578 93.1205 101.201 88.6594 101.948 84.8195L80.0118 87.5137C80.0118 87.5137 76.4018 74.007 75.1089 69.9132C72.5809 61.9248 64.5818 51.0603 55.1806 56.136Z" fill="#1D35F6"/>
<path d="M80.2541 87.2854C78.9479 82.5926 77.7063 77.8759 76.2719 73.2162C74.9823 69.0305 73.3502 64.7927 70.3747 61.373C68.803 59.5623 66.9137 57.9616 64.7092 56.8449C64.6844 56.8325 64.6786 56.8896 64.6992 56.9011C68.4283 59.0387 76.731 82.5942 77.4556 85.1454C77.4639 85.176 74.9542 88.1275 72.6578 88.7851C72.6098 88.7991 72.6247 88.9001 72.676 88.8926C74.5554 88.6122 76.4216 88.2615 78.2886 87.919C78.938 87.7991 79.6444 87.6824 80.3161 87.5583C80.317 87.5583 80.2756 87.3615 80.2541 87.2854Z" fill="#1F34DA"/>
<path d="M88.6504 86.4523C88.2814 86.4523 80.8746 84.3255 79.5841 84.4786C79.4692 84.4926 80.1127 87.5922 80.2045 87.5781C80.6992 87.502 88.6586 86.4523 88.6504 86.4523Z" fill="#1F34DA"/>
<path d="M157.615 75.7292L159.124 93.9427C159.124 86.2497 160.489 71.3847 162.92 62.029C164.466 56.0731 166.256 52.2498 168.112 49.3496L167.913 48.1526L164.998 50.8931L164.327 54.5014C164.327 54.5014 159.042 66.8384 157.615 75.7292Z" fill="#2B3CC3"/>
<path d="M192.707 15.3216C190.741 13.6266 189.337 13.9352 189.337 13.9352C189.337 13.9352 184.516 3.46189 175.53 4.53975C166.862 5.57955 166.817 13.3305 168.631 16.1207C167.943 17.7503 166.357 22.6821 170.522 26.1506L172.461 18.2789C173.868 18.355 184.51 29.3312 184.621 28.8977C185.211 26.6494 188.631 27.0258 188.872 27.2433L189.745 26.929C191.215 26.1704 192.553 22.9178 192.812 21.9773C193.372 19.9614 194.067 16.4937 192.707 15.3216Z" fill="#131B5B"/>
<path d="M180.648 8.72949C180.648 8.72949 174.81 11.3112 170.532 9.88345C170.532 9.88345 171.514 11.7372 174.819 11.901C174.819 11.901 172.834 13.366 170.887 13.0186C170.887 13.0186 173.159 14.8872 178.911 11.5751L177.382 10.9845C177.382 10.9845 180.075 9.58152 180.648 8.72949Z" fill="#192374"/>
<path d="M188.025 31.5836C187.939 31.5978 187.852 31.6072 187.764 31.6117C187.764 31.6117 185.813 32.3637 184 30.6621C182.62 29.365 178.163 34.8577 176.318 38.3402C174.01 39.2038 171.404 39.3329 169.467 37.0167C167.87 35.1083 167.482 31.9128 167.812 28.5891C168.23 24.3794 169.715 19.9861 170.421 17.8974C170.688 17.1083 170.864 16.6492 170.864 16.6492C170.864 16.6492 175.92 19.5444 183.784 17.7543L182.128 21.2989C182.105 21.3469 182.082 21.3998 182.059 21.4561C181.999 21.6108 181.946 21.7679 181.901 21.9251C181.886 21.9764 181.873 22.0269 181.861 22.079C181.849 22.1294 181.837 22.1815 181.826 22.2312C181.815 22.2808 181.801 22.328 181.793 22.3776C181.766 22.5124 181.745 22.6489 181.728 22.7829V22.8202C181.711 22.9666 181.7 23.1155 181.696 23.2619C181.669 24.3095 181.928 25.3447 182.446 26.2558C182.963 27.167 183.72 27.9196 184.634 28.4328C184.634 28.4328 184.641 28.4369 184.645 28.4402C184.645 28.4228 184.645 28.4038 184.645 28.3864C184.64 27.8755 184.753 27.3704 184.976 26.9107C185.37 26.1025 186.093 25.5044 186.991 25.3555C188.551 25.095 190.047 26.2779 190.333 27.9968C190.619 29.7158 189.583 31.3247 188.025 31.5836Z" fill="#A9B2FB"/>
<path d="M185.836 29.3849C185.79 29.3847 185.745 29.3704 185.708 29.3439C185.67 29.3175 185.641 29.2802 185.626 29.2371C185.61 29.194 185.608 29.147 185.619 29.1026C185.631 29.0582 185.656 29.0185 185.691 28.9887L187.891 27.1308C187.937 27.0922 187.996 27.0734 188.056 27.0785C188.115 27.0835 188.17 27.112 188.209 27.1576C188.247 27.2033 188.266 27.2623 188.261 27.3218C188.256 27.3813 188.227 27.4364 188.182 27.4749L186.61 28.8042L187.973 28.5767C188.003 28.5702 188.034 28.5699 188.064 28.5757C188.094 28.5815 188.122 28.5933 188.147 28.6104C188.173 28.6275 188.194 28.6496 188.21 28.6753C188.227 28.7009 188.238 28.7297 188.243 28.7597C188.248 28.7898 188.247 28.8206 188.24 28.8502C188.232 28.8798 188.219 28.9076 188.201 28.932C188.182 28.9563 188.159 28.9767 188.133 28.9918C188.106 29.007 188.077 29.0166 188.047 29.0201L185.876 29.3816C185.863 29.3841 185.849 29.3853 185.836 29.3849ZM172.625 28.1879H172.621C171.076 28.1606 170.184 27.8413 169.895 27.211C169.482 26.3176 170.419 25.0784 171.326 23.9849C172.341 22.7623 171.934 21.3618 171.916 21.3031C171.907 21.2745 171.904 21.2445 171.907 21.2147C171.91 21.1849 171.919 21.156 171.933 21.1296C171.947 21.1032 171.966 21.0798 171.989 21.0607C172.012 21.0416 172.038 21.0273 172.067 21.0185C172.095 21.0097 172.125 21.0066 172.155 21.0094C172.185 21.0122 172.214 21.0209 172.24 21.0348C172.267 21.0488 172.29 21.0679 172.309 21.0909C172.328 21.1139 172.343 21.1405 172.351 21.1691C172.373 21.2377 172.853 22.859 171.676 24.2761C170.84 25.2828 170.022 26.3962 170.309 27.0199C170.512 27.4616 171.314 27.7073 172.625 27.7313C172.686 27.7313 172.743 27.7553 172.786 27.7979C172.829 27.8406 172.853 27.8985 172.853 27.9588C172.853 28.0191 172.829 28.077 172.786 28.1196C172.743 28.1623 172.686 28.1863 172.625 28.1863V28.1879Z" fill="#8A96F7"/>
<path d="M171.146 22.8492C171.055 23.1916 170.766 23.4125 170.502 23.3455C170.239 23.2785 170.098 22.9402 170.189 22.601C170.28 22.2618 170.569 22.0377 170.833 22.1047C171.098 22.1717 171.238 22.5067 171.146 22.8492ZM175.184 23.5581C175.092 23.9005 174.804 24.1214 174.539 24.0544C174.275 23.9874 174.136 23.6491 174.227 23.3099C174.318 22.9708 174.606 22.7466 174.87 22.8136C175.134 22.8806 175.275 23.2156 175.184 23.5581ZM176.86 22.2817C176.78 22.2817 176.701 22.2607 176.632 22.2208C176.563 22.1808 176.505 22.1234 176.465 22.0542C175.706 20.7481 174.397 21.2684 174.253 21.3321C174.143 21.3781 174.019 21.3792 173.909 21.3352C173.798 21.2912 173.709 21.2055 173.66 21.0966C173.612 20.9876 173.608 20.864 173.65 20.7523C173.692 20.6407 173.775 20.5497 173.883 20.4991C174.634 20.164 176.304 19.963 177.253 21.5976C177.293 21.6668 177.314 21.7452 177.314 21.8252C177.314 21.9051 177.293 21.9836 177.253 22.0529C177.213 22.1222 177.156 22.1798 177.087 22.22C177.018 22.2601 176.94 22.2814 176.86 22.2817ZM171.094 20.624C171.026 20.5273 170.938 20.4475 170.834 20.3907C170.586 20.2443 170.265 20.1996 169.88 20.2567C169.763 20.2695 169.646 20.2365 169.553 20.1646C169.459 20.0927 169.398 19.9875 169.38 19.8711C169.363 19.7546 169.391 19.6359 169.459 19.5399C169.527 19.4439 169.63 19.3779 169.746 19.3559C171.293 19.1251 171.865 20.1359 171.889 20.1831L171.089 20.6198L171.094 20.624Z" fill="#131B5B"/>
<path opacity="0.5" d="M180.121 26.5352C180.121 27.0919 179.15 27.5444 177.952 27.546C176.755 27.5477 175.783 27.096 175.782 26.5393C175.781 25.9826 176.752 25.5293 177.95 25.5284C179.148 25.5276 180.12 25.9776 180.121 26.5352Z" fill="#8894F3"/>
<path d="M170.538 31.7069L174.114 31.7284C174.114 31.7284 174.027 33.8097 172.361 33.6591C170.695 33.5086 170.538 31.7069 170.538 31.7069Z" fill="white"/>
<path d="M165.066 118.713C165.758 119.292 166.871 119.059 166.871 119.059L170.053 123.706C170.348 124.137 170.75 124.486 171.219 124.717C171.688 124.949 172.209 125.056 172.731 125.029C174.151 124.961 175.372 125.408 179.164 123.418C181.246 122.324 183.978 120.306 184.458 120.232L180.748 113.449V113.44L177.522 114.771C177.522 114.771 175.161 112.389 172.362 112.289C170.373 112.216 168.503 111.335 167.426 110.489C167.341 110.42 167.236 110.378 167.127 110.368C167.017 110.358 166.907 110.381 166.811 110.434C166.714 110.486 166.635 110.566 166.584 110.664C166.533 110.761 166.511 110.871 166.523 110.981C166.662 112.222 167.278 113.93 169.488 114.761C169.488 114.761 164.354 116.553 164.562 117.785C164.611 118.146 164.791 118.476 165.066 118.713Z" fill="#A9B2FB"/>
<path d="M169.487 114.957C169.44 114.957 169.394 114.941 169.357 114.912C169.321 114.882 169.296 114.84 169.287 114.794C169.277 114.748 169.285 114.7 169.307 114.658C169.329 114.617 169.365 114.584 169.409 114.567L171.457 113.722C171.482 113.712 171.508 113.707 171.535 113.707C171.561 113.707 171.588 113.712 171.612 113.722C171.637 113.733 171.659 113.747 171.678 113.766C171.697 113.785 171.712 113.808 171.722 113.832C171.732 113.857 171.737 113.883 171.737 113.91C171.737 113.936 171.732 113.963 171.722 113.987C171.712 114.012 171.697 114.034 171.678 114.053C171.659 114.072 171.637 114.087 171.612 114.097L169.564 114.939C169.54 114.95 169.513 114.956 169.487 114.957ZM166.869 119.262C166.822 119.262 166.776 119.246 166.74 119.216C166.703 119.186 166.678 119.145 166.669 119.098C166.66 119.052 166.667 119.004 166.69 118.963C166.712 118.922 166.748 118.889 166.792 118.872L171.056 117.112C171.081 117.102 171.107 117.097 171.134 117.097C171.16 117.097 171.187 117.102 171.211 117.112C171.236 117.122 171.258 117.137 171.277 117.156C171.296 117.175 171.311 117.197 171.321 117.222C171.331 117.247 171.336 117.273 171.336 117.3C171.336 117.326 171.331 117.353 171.321 117.377C171.31 117.402 171.295 117.424 171.277 117.443C171.258 117.462 171.235 117.477 171.211 117.487L166.951 119.246C166.925 119.257 166.897 119.263 166.869 119.262ZM168.219 121.026C168.17 121.026 168.123 121.007 168.086 120.975C168.049 120.942 168.026 120.897 168.02 120.848C168.014 120.8 168.026 120.75 168.054 120.71C168.081 120.669 168.122 120.64 168.17 120.628L171.86 119.704C171.886 119.696 171.914 119.694 171.941 119.697C171.968 119.7 171.994 119.709 172.017 119.723C172.041 119.736 172.062 119.754 172.078 119.776C172.095 119.798 172.106 119.823 172.113 119.849C172.12 119.876 172.121 119.903 172.117 119.93C172.112 119.957 172.103 119.983 172.088 120.006C172.074 120.029 172.055 120.049 172.033 120.064C172.01 120.08 171.985 120.091 171.959 120.097L168.268 121.021C168.252 121.024 168.235 121.026 168.219 121.026ZM169.646 123.314C169.596 123.314 169.549 123.296 169.512 123.264C169.475 123.231 169.451 123.186 169.445 123.138C169.438 123.089 169.45 123.039 169.478 122.998C169.505 122.958 169.547 122.928 169.594 122.916L173.108 122.006C173.133 121.999 173.16 121.998 173.187 122.001C173.213 122.005 173.238 122.014 173.261 122.027C173.284 122.041 173.304 122.059 173.32 122.08C173.337 122.101 173.348 122.126 173.355 122.151C173.362 122.177 173.363 122.204 173.359 122.23C173.356 122.257 173.347 122.282 173.333 122.305C173.32 122.328 173.302 122.348 173.281 122.364C173.259 122.38 173.235 122.392 173.209 122.399L169.696 123.309C169.68 123.313 169.663 123.315 169.646 123.314Z" fill="#8A96F7"/>
<path opacity="0.15" d="M82.5662 37.8076L74.4546 31.7375L73.0194 32.1693C73.0194 32.1693 75.2884 48.1204 84.3133 48.9278L82.5662 37.8076Z" fill="#1C298E"/>
<path d="M56.0822 48.2842C58.3786 46.8622 61.742 47.5869 63.2492 49.8278C64.2898 48.3691 65.3293 46.9105 66.3677 45.4518C66.1269 46.0539 65.9454 46.6781 65.8259 47.3155C68.296 46.5603 74.208 45.8903 74.2957 45.8803C74.3023 45.1601 74.3084 44.4399 74.3139 43.7197C74.5703 43.8526 74.8268 43.9844 75.0832 44.1151C75.8816 45.3205 76.5083 46.6313 76.9453 48.0096C77.7179 47.6224 78.4921 47.2295 79.2557 46.82C79.512 46.9679 79.7918 47.0706 80.0829 47.1236C82.4106 47.6514 84.2619 47.1236 86.5905 46.595C86.8387 44.8786 86.387 42.349 85.7401 40.7401C86.7791 42.1976 88.6519 44.9332 89.6917 46.3915C91.1989 44.1515 94.5623 43.4268 96.8587 44.8496C98.1226 42.9818 96.6039 40.4423 94.7906 39.1022C92.9774 37.7621 90.7084 36.7653 89.7529 34.7229C88.8554 32.8046 89.8274 29.2576 90.0921 28.3774L91.5314 26.3863L92.1105 24.1727C91.9934 22.9685 91.7363 21.782 91.3445 20.6372L91.8631 20.5686L90.806 15.8394C90.577 14.814 90.131 13.8494 89.498 13.0109C88.8649 12.1723 88.0595 11.4791 87.136 10.978C86.2125 10.4769 85.1923 10.1795 84.1442 10.1059C83.096 10.0322 82.0443 10.184 81.0598 10.5511L79.3888 11.174C78.8156 11.6901 77.8916 12.3875 76.4704 12.3792C62.8579 12.2965 63.6901 23.9601 63.6901 23.9601C62.2276 26.2035 61.7337 29.1467 62.7851 31.6052C62.7851 31.6052 64.217 35.9547 63.1871 38.1542C62.2317 40.1958 59.961 41.1925 58.1494 42.5326C56.3378 43.8727 54.8191 46.4164 56.0822 48.2842Z" fill="#000530"/>
<path d="M67.1527 36.3054C67.1527 36.3054 66.8458 38.7391 66.4438 39.587C65.8895 40.755 63.326 44.3674 63.326 44.3674C63.326 44.3674 66.8003 41.6475 67.984 41.9751C69.1678 42.3027 68.2909 44.1714 68.3794 44.0431C68.468 43.9149 70.3226 38.7325 70.3226 38.7325C70.3226 38.7325 69.9172 39.1932 68.731 39.5861C67.5448 39.9791 67.1527 36.3054 67.1527 36.3054ZM59.8278 46.5951C59.0006 45.3923 59.6507 43.8396 60.5052 42.8387C61.3821 41.7741 62.6634 41.1711 63.7479 40.3571C65.8449 38.8152 66.0848 37.5247 65.6794 35.0456C65.5619 34.3798 65.4011 33.7225 65.198 33.0777C64.9327 32.4467 64.7758 31.7755 64.7339 31.0924C64.6742 29.8192 64.9507 28.5528 65.5355 27.4204C65.902 26.68 66.998 25.2266 67.4555 24.5251L67.6689 24.674C67.2056 25.3606 66.0972 26.8132 65.7349 27.5213C65.5591 27.8569 65.4098 28.2056 65.2882 28.5644C65.0093 29.372 64.8836 30.2246 64.9176 31.0783C64.9511 31.7431 65.0974 32.3974 65.3502 33.0131C65.551 33.6701 65.708 34.3397 65.8201 35.0175C66.208 37.5396 65.9408 38.8764 63.7942 40.42C62.699 41.2248 61.4218 41.8072 60.5342 42.8619C59.6731 43.8479 59.0121 45.3882 59.8245 46.5909L59.8278 46.5951Z" fill="#252A55"/>
<path d="M88.7462 32.2074C88.9117 33.8477 89.4742 34.3499 90.2989 34.4739C87.7511 35.8115 82.8251 37.456 73.9979 36.7231C67.075 36.149 64.8325 33.1744 64.2642 30.4827C64.7605 29.5074 64.7886 27.9241 64.595 25.8503C64.1715 21.2609 66.29 15.4705 73.6331 12.9996C80.9763 10.5287 87.5575 15.4076 87.5575 15.4076C87.5575 15.4076 95.2398 14.1287 96.2995 20.9425C97.3591 27.7562 88.3219 28.0416 88.7462 32.2074Z" fill="#000530"/>
<path d="M90.8863 33.7741C90.8631 39.4422 90.1534 42.5872 84.779 41.3902L84.5234 48.9278C82.3214 52.0894 76.4275 50.3249 73.4587 48.9278C72.2749 48.3711 69.345 46.595 69.345 46.595L73.0194 36.3054C71.3849 36.6148 70.6809 35.7512 70.0531 33.9842C69.3665 32.0486 70.2392 29.9731 72.002 29.3477C73.7647 28.7224 75.7509 29.7828 76.4375 31.7185C76.4507 31.7541 76.459 31.7897 76.4705 31.8261C79.1391 30.8334 84.056 28.0838 86.3143 20.9449C86.3143 20.9449 90.7622 23.8054 90.8689 31.1138C90.8689 31.2065 90.8689 31.2975 90.8689 31.3893C90.8733 31.665 90.8767 31.935 90.8789 32.1991C90.883 32.4556 90.8847 32.707 90.8863 32.9544C90.8874 33.2356 90.8874 33.5089 90.8863 33.7741Z" fill="#A9B2FB"/>
<path d="M76.4704 31.826C79.139 30.8333 84.0559 28.0837 86.3142 20.9457C86.3142 20.9457 88.0778 22.0814 89.4105 24.7459C85.1884 30.3428 76.4704 31.826 76.4704 31.826ZM75.0485 33.7434H72.5064C72.4572 33.7402 72.411 33.7184 72.3773 33.6823C72.3435 33.6463 72.3247 33.5988 72.3247 33.5494C72.3247 33.5001 72.3435 33.4526 72.3773 33.4165C72.411 33.3805 72.4572 33.3587 72.5064 33.3555H74.4835L71.7537 31.2312C71.7131 31.1997 71.6867 31.1534 71.6802 31.1024C71.6738 31.0515 71.6879 31 71.7194 30.9595C71.7508 30.9189 71.7972 30.8925 71.8481 30.886C71.8991 30.8796 71.9505 30.8936 71.9911 30.9251L75.1692 33.3968C75.2007 33.4218 75.2236 33.456 75.2349 33.4945C75.2462 33.5331 75.2452 33.5742 75.2322 33.6122C75.2191 33.6502 75.1946 33.6833 75.162 33.7067C75.1294 33.7302 75.0903 33.7431 75.0501 33.7434H75.0485ZM84.7789 41.3901C84.7789 41.3901 80.2119 39.7357 79.1539 37.0887C79.1539 37.0887 79.9919 44.6105 84.5994 45.8769L84.7789 41.3901Z" fill="#8A96F7"/>
<g opacity="0.5">
<path d="M85.2332 32.9799C85.2332 33.4705 84.3729 33.8617 83.3198 33.8551C82.2668 33.8485 81.4172 33.4457 81.4172 32.9551C81.4172 32.4646 82.2775 32.0742 83.3314 32.0808C84.3853 32.0874 85.2365 32.4902 85.2332 32.9799Z" fill="#8894F3"/>
</g>
<g opacity="0.5">
<path d="M90.8855 32.9545C90.2784 32.8023 89.8664 32.5037 89.8689 32.162C89.8714 31.8204 90.2751 31.5366 90.8682 31.3894C90.8726 31.6651 90.8759 31.9351 90.8781 32.1992C90.8822 32.4557 90.8839 32.7072 90.8855 32.9545Z" fill="#8894F3"/>
</g>
<path d="M87.7669 35.1846C87.7184 35.1853 87.6715 35.1677 87.6354 35.1354C87.5992 35.1031 87.5765 35.0584 87.5717 35.0102C87.567 34.962 87.5804 34.9137 87.6095 34.8749C87.6386 34.8362 87.6812 34.8097 87.7288 34.8008C87.7346 34.8008 88.3484 34.6685 89.4287 34.0787C89.6546 33.9546 89.6711 33.8222 89.6769 33.7784C89.7364 33.3019 88.8538 32.4805 88.3261 31.99C88.1291 31.8159 87.9424 31.6306 87.7669 31.4349C87.2391 30.7855 87.2044 29.7375 87.2027 29.6928C87.2013 29.6415 87.2203 29.5917 87.2556 29.5543C87.2909 29.517 87.3396 29.4953 87.3909 29.4938C87.4422 29.4924 87.492 29.5114 87.5293 29.5467C87.5667 29.582 87.5884 29.6307 87.5898 29.682C87.5898 29.692 87.6229 30.6441 88.0671 31.19C88.2317 31.3716 88.4063 31.544 88.5899 31.7062C89.2831 32.3506 90.1459 33.1538 90.0615 33.8272C90.0301 34.0753 89.8796 34.273 89.614 34.4186C88.475 35.0407 87.8322 35.1747 87.8057 35.1805C87.7929 35.1831 87.7799 35.1844 87.7669 35.1846Z" fill="#8A96F7"/>
<path d="M84.875 30.6232C84.9371 30.9218 84.8006 31.2023 84.5706 31.2511C84.3406 31.2999 84.1024 31.0956 84.0404 30.7969C83.9783 30.4983 84.114 30.2179 84.3448 30.1691C84.5756 30.1203 84.8097 30.3238 84.875 30.6232ZM89.4751 30.1418C89.4933 30.4462 89.3171 30.7051 89.0814 30.7208C88.8456 30.7366 88.6413 30.4991 88.6239 30.1939C88.6065 29.8887 88.7819 29.6306 89.0168 29.6149C89.2518 29.5991 89.4577 29.8366 89.4751 30.1418ZM83.1834 29.1574C83.1069 29.1569 83.0323 29.1338 82.9689 29.091C82.9056 29.0482 82.8563 28.9876 82.8274 28.9168C82.7984 28.846 82.7911 28.7682 82.8063 28.6933C82.8215 28.6183 82.8586 28.5495 82.9129 28.4956C82.9559 28.4526 83.9882 27.4649 85.3424 27.9919C85.438 28.0293 85.5149 28.1032 85.5561 28.1972C85.5973 28.2913 85.5994 28.3979 85.562 28.4936C85.5246 28.5892 85.4507 28.6661 85.3566 28.7073C85.2626 28.7485 85.156 28.7506 85.0603 28.7132C84.1702 28.3666 83.4605 29.0441 83.453 29.0507C83.3804 29.1199 83.2837 29.1581 83.1834 29.1574ZM87.9845 28.7289C87.9065 28.7291 87.8302 28.7057 87.7658 28.6618C87.7014 28.6178 87.6517 28.5554 87.6234 28.4827C87.5952 28.41 87.5895 28.3305 87.6073 28.2545C87.6251 28.1786 87.6655 28.1098 87.7231 28.0572C88.1102 27.7032 89.1054 27.23 90.0955 27.9679C90.1779 28.0293 90.2325 28.121 90.2473 28.2226C90.2621 28.3243 90.2359 28.4277 90.1745 28.5101C90.1131 28.5925 90.0215 28.6471 89.9198 28.6619C89.8181 28.6767 89.7147 28.6505 89.6323 28.5891C88.925 28.0614 88.3088 28.5717 88.2426 28.6313C88.1714 28.6944 88.0796 28.7291 87.9845 28.7289Z" fill="#131B5B"/>
<path d="M83.0799 20.6521C83.0799 20.6521 81.5818 25.8048 77.1339 26.862C77.1339 26.862 78.5666 25.9413 79.3599 22.9906C79.3599 22.9906 75.9998 25.2737 72.3336 24.3969C72.3336 24.3969 79.5154 23.2206 81.2774 18.9927C81.2774 18.9927 81.2501 21.0996 80.7662 22.7731C80.7662 22.7714 82.2452 21.7531 83.0799 20.6521ZM91.0567 18.7537C91.0567 18.7537 93.5044 19.8075 93.7517 22.0625C93.7517 22.0625 93.3861 21.2998 91.9806 20.7274C91.9806 20.7274 92.8997 22.5241 92.242 24.2761C92.242 24.2761 92.1031 20.6653 90.1277 19.537C90.1277 19.537 91.1642 19.6801 91.9591 20.0218C91.9591 20.0243 91.548 19.231 91.0567 18.7537Z" fill="#252A55"/>
<path d="M88.763 36.0167C88.763 36.0167 88.6645 37.0921 88.0764 37.8109C87.861 38.0925 87.5632 38.2999 87.2243 38.4041C86.4798 38.6249 86.1084 38.0467 85.9198 37.4726C85.823 37.1659 85.7624 36.8488 85.7395 36.5279C86.7761 36.6849 87.8356 36.5057 88.763 36.0167Z" fill="#12173E"/>
<path d="M88.0762 37.811C87.8609 38.0926 87.563 38.2999 87.2242 38.4041C86.4797 38.625 86.1083 38.0468 85.9197 37.4727C86.6493 37.1253 87.6121 37.1815 88.0762 37.811Z" fill="#233AEF"/>
<path d="M72.1376 41.7939C71.7187 41.7684 71.3089 41.6606 70.9316 41.4766C70.5544 41.2927 70.2171 41.0362 69.939 40.7219C69.6609 40.4075 69.4475 40.0415 69.3109 39.6446C69.1744 39.2477 69.1173 38.8279 69.1431 38.409C69.1812 37.7863 69.4007 37.1885 69.7744 36.6891C70.1482 36.1896 70.6599 35.8105 71.2465 35.5984C71.8331 35.3862 72.4689 35.3504 73.0756 35.4952C73.6824 35.64 74.2335 35.9592 74.661 36.4135C75.0885 36.8677 75.3738 37.4371 75.4817 38.0515C75.5895 38.6659 75.5153 39.2984 75.268 39.8711C75.0208 40.4438 74.6114 40.9316 74.0903 41.2744C73.5691 41.6173 72.9591 41.8002 72.3353 41.8005C72.2691 41.8005 72.203 41.798 72.1376 41.7939ZM70.2011 38.4743C70.1836 38.7544 70.2215 39.0352 70.3127 39.3006C70.4038 39.5661 70.5464 39.8109 70.7322 40.0212C70.9181 40.2315 71.1436 40.403 71.3958 40.5261C71.648 40.6492 71.922 40.7213 72.2021 40.7384C72.482 40.7556 72.7626 40.7176 73.0278 40.6265C73.293 40.5353 73.5376 40.3928 73.7477 40.2071C73.9578 40.0214 74.1293 39.7962 74.2524 39.5442C74.3755 39.2922 74.4477 39.0185 74.465 38.7386C74.4822 38.4587 74.4442 38.1782 74.3531 37.913C74.2619 37.6478 74.1194 37.4031 73.9337 37.193C73.748 36.9829 73.5228 36.8114 73.2708 36.6883C73.0188 36.5653 72.7451 36.493 72.4652 36.4758C72.4205 36.4758 72.3758 36.4716 72.332 36.4716C71.789 36.4726 71.2666 36.6801 70.8709 37.052C70.4752 37.4239 70.2358 37.9324 70.2011 38.4743Z" fill="white"/>
<path d="M39.4231 5.39369e-08H56.7523C57.5854 -0.000108586 58.4104 0.1639 59.1802 0.482661C59.95 0.801421 60.6494 1.26869 61.2386 1.85778C61.8277 2.44688 62.2951 3.14626 62.614 3.91598C62.9328 4.68571 63.0969 5.51071 63.0969 6.34386V13.7284C63.0967 15.4109 62.4282 17.0245 61.2383 18.2142C60.0485 19.4039 58.4348 20.0722 56.7523 20.0722H50.9957V27.2218L45.3442 20.0722H39.4231C37.7405 20.0722 36.1268 19.4039 34.937 18.2142C33.7471 17.0245 33.0786 15.4109 33.0784 13.7284V6.34386C33.0784 5.51071 33.2425 4.68571 33.5613 3.91598C33.8802 3.14626 34.3476 2.44688 34.9367 1.85778C35.5259 1.26869 36.2253 0.801421 36.9951 0.482661C37.7649 0.1639 38.5899 -0.000108586 39.4231 5.39369e-08Z" fill="#384EFE"/>
<path d="M43.4252 10.0355C43.4252 10.5229 43.2807 10.9994 43.0099 11.4046C42.7391 11.8099 42.3543 12.1257 41.904 12.3122C41.4537 12.4987 40.9582 12.5475 40.4802 12.4525C40.0022 12.3574 39.5631 12.1227 39.2185 11.778C38.8738 11.4334 38.6391 10.9943 38.5441 10.5163C38.449 10.0383 38.4978 9.5428 38.6843 9.09252C38.8708 8.64223 39.1866 8.25737 39.5919 7.98659C39.9971 7.71582 40.4736 7.57129 40.961 7.57129C41.6145 7.57129 42.2413 7.83092 42.7035 8.29305C43.1656 8.75519 43.4252 9.38199 43.4252 10.0355ZM48.0874 7.57129C47.6 7.57129 47.1235 7.71582 46.7183 7.98659C46.3131 8.25737 45.9972 8.64223 45.8107 9.09252C45.6242 9.5428 45.5754 10.0383 45.6705 10.5163C45.7655 10.9943 46.0002 11.4334 46.3449 11.778C46.6895 12.1227 47.1286 12.3574 47.6066 12.4525C48.0846 12.5475 48.5801 12.4987 49.0304 12.3122C49.4807 12.1257 49.8655 11.8099 50.1363 11.4046C50.4071 10.9994 50.5516 10.5229 50.5516 10.0355C50.5516 9.38199 50.292 8.75519 49.8299 8.29305C49.3677 7.83092 48.7409 7.57129 48.0874 7.57129ZM55.2146 7.57129C54.7271 7.57096 54.2505 7.71521 53.8451 7.98579C53.4396 8.25636 53.1235 8.64112 52.9367 9.09137C52.75 9.54163 52.7009 10.0372 52.7958 10.5153C52.8907 10.9934 53.1253 11.4327 53.4699 11.7775C53.8144 12.1223 54.2535 12.3571 54.7316 12.4523C55.2096 12.5475 55.7052 12.4988 56.1556 12.3124C56.606 12.1259 56.9909 11.8101 57.2618 11.4048C57.5326 10.9995 57.6772 10.523 57.6772 10.0355C57.6772 9.38227 57.4178 8.75573 56.956 8.29364C56.4942 7.83155 55.8679 7.57173 55.2146 7.57129Z" fill="white"/>
</svg>
