<svg width="239" height="195" viewBox="0 0 239 195" fill="none" xmlns="http://www.w3.org/2000/svg">
<path d="M226.911 193.886C226.832 194.137 226.753 194.388 226.672 194.638H17.483C17.3682 194.388 17.2549 194.138 17.1429 193.886C2.99807 162.316 8.96417 127.927 10.8003 117.344C19.8369 65.2601 59.5746 11.7415 112.202 3.26892C143.605 -1.7861 181.677 8.86135 184.63 24.9977C190.813 58.7748 107.804 74.6312 116.728 88.373C125.652 102.115 155.501 65.8983 184.63 76.6031C217.836 88.8082 240.763 149.394 226.911 193.886Z" fill="#EBEDFF"/>
<path d="M215.753 164.23C216.868 164.52 221.09 164.35 220.284 162.267C219.387 159.95 216.993 161.975 215.966 163.259C216.356 161.211 216.409 159.124 216.403 158.007C217.162 157.095 218.766 151.3 215.607 151.587C211.468 151.963 215.135 157.449 216.089 158.071C216.088 159.408 215.999 162.056 215.394 164.354C215.265 162.894 213.809 158.74 211.873 160.205C209.066 162.33 214.438 164.894 215.253 164.85C214.997 165.689 214.665 166.462 214.233 167.079C213.922 167.524 213.577 168.039 213.221 168.6C213.214 168.607 213.208 168.613 213.202 168.62C213.022 167.083 211.587 163.134 209.692 164.568C207.071 166.552 211.579 168.918 212.853 169.188C212.063 170.473 211.249 171.941 210.621 173.356C210.533 171.967 207.808 169.129 206.726 170.752C206.122 171.657 209.316 174.607 210.368 173.946C209.768 175.412 209.407 176.783 209.532 177.783C209.578 178.152 209.645 178.587 209.723 179.059C208.977 178.234 206.282 175.467 205.479 177.608C204.814 179.383 207.037 180.413 207.972 180.413C208.704 180.413 209.48 179.721 209.783 179.419C209.827 179.674 209.872 179.936 209.918 180.204C210.294 182.389 210.745 185.018 210.613 186.599C209.976 185.364 207.133 180.222 205.479 183.529C204.631 185.225 207.037 186.646 207.972 186.957C208.739 187.213 210.111 186.983 210.58 186.892C210.554 187.07 210.52 187.235 210.473 187.375C209.864 189.203 208.634 191.059 208.622 191.078C208.574 191.149 208.593 191.246 208.665 191.294C208.692 191.312 208.721 191.32 208.751 191.32C208.802 191.32 208.851 191.296 208.881 191.251C208.892 191.235 209.806 189.853 210.461 188.287C211.195 188.194 214.017 187.81 214.828 187.269C215.763 186.646 217.437 184.598 216.075 183.841C213.967 182.67 211.756 185.783 210.788 187.401C211.149 186.193 210.829 183.776 210.455 181.507C211.209 181.733 213.662 181.294 214.517 180.725C215.451 180.101 217.063 178.487 216.075 177.608C213.597 175.406 210.98 180.071 210.402 181.19C210.343 180.837 210.283 180.489 210.225 180.151C210.069 179.246 209.922 178.392 209.841 177.745C209.725 176.816 210.071 175.48 210.688 173.982C211.18 174.138 212.844 174.597 214.672 174.336C216.854 174.024 217.96 172.326 217.165 171.531C215.813 170.179 211.817 172.981 210.785 173.745C211.413 172.271 212.295 170.654 213.262 169.112C214.533 169.406 219.598 169.299 218.912 167.287C218.227 165.278 215.635 166.63 214.111 167.808C214.236 167.623 214.362 167.438 214.488 167.258C215.065 166.434 215.469 165.364 215.753 164.23ZM25.4128 175.974C22.535 174.823 21.8314 179.227 21.6797 180.672C21.0458 178.565 20.7767 176.002 21.0633 173.915C21.5011 173.905 23.1985 173.824 24.3843 173.232C25.7556 172.546 26.6013 169.8 25.4128 169.46C23.416 168.89 21.6578 172.352 21.1232 173.532C21.1701 173.266 21.2259 173.008 21.2928 172.762C21.7305 171.158 22.0476 169.09 22.1846 167.058C22.726 167.048 24.236 166.996 25.0699 166.718C26.0984 166.375 27.8398 163.689 26.4413 163.29C24.5139 162.739 22.8087 165.504 22.2116 166.614C22.3271 164.495 22.2397 162.455 21.8792 161.065C22.0335 160.455 22.3273 159.159 22.3273 158.147C22.3273 156.776 20.736 154.076 19.2419 155.405C16.5125 157.831 20.6028 160.666 21.5834 161.289C21.9148 162.657 21.988 164.633 21.8693 166.683C21.2566 165.141 18.7807 159.591 15.8136 162.261C14.674 163.287 17.1849 165.689 18.8991 166.375C20.2623 166.92 21.4253 167.036 21.8455 167.06C21.7077 169.056 21.3934 171.09 20.962 172.672C20.8838 172.959 20.8209 173.263 20.7696 173.577C20.1196 172.266 17.0952 166.69 13.7567 169.118C12.3704 170.126 15.128 172.546 16.4993 173.232C17.6764 173.82 20.0727 173.851 20.7281 173.848C20.4434 175.927 20.7006 178.471 21.3181 180.606C20.3109 179.082 17.3663 175.17 15.128 177.688C13.7999 179.182 17.2377 180.448 18.2134 180.774C19.0727 181.06 20.9106 181.146 21.4925 181.166C21.9802 182.638 22.6436 183.86 23.4174 184.505C23.4496 184.532 23.4884 184.545 23.5271 184.545C23.5763 184.545 23.625 184.524 23.659 184.483C23.7196 184.411 23.7097 184.302 23.637 184.242C22.8986 183.626 22.266 182.46 21.7996 181.052C22.2459 180.866 23.5436 180.306 24.3843 179.745C25.4128 179.06 27.0043 176.611 25.4128 175.974Z" fill="#CBD0F4"/>
<path d="M227.327 193.881H132.223C132.156 193.629 132.091 193.378 132.031 193.129C131.283 189.992 131.231 187.109 132.601 186.006C134.685 184.332 138.203 188.255 143.003 186.952C149.769 185.117 150.548 175.223 154.352 175.288C158.616 175.361 158.893 187.814 164.755 189.159C171.076 190.609 176.864 177.535 183.669 179.386C187.298 180.374 187.494 184.592 191.551 185.061C195.814 185.552 197.569 181.122 201.007 181.908C205.08 182.842 204.743 189.548 209.203 190.735C212.117 191.51 213.476 188.974 217.085 188.844C220.421 188.722 224.145 190.715 226.613 193.129C226.865 193.376 227.104 193.628 227.327 193.881ZM95.8932 193.881H4.88461C4.83703 193.632 4.79504 193.38 4.75586 193.129C3.7748 186.762 5.03436 180.065 8.39877 178.125C10.2853 177.038 12.0375 177.906 14.7819 178.965C16.919 179.791 19.6578 180.734 23.5289 180.962C33.6445 181.558 35.5324 176.334 43.7042 177.81C44.3675 177.931 44.9735 178.076 45.5319 178.244L45.5333 178.246C51.4084 180.01 52.0368 184.177 59.1505 185.376C67.0116 186.701 69.8246 182.222 76.8039 182.539C83.7916 182.857 91.2958 187.82 95.346 193.129C95.5363 193.38 95.7197 193.63 95.8932 193.881Z" fill="#CBD0F4"/>
<path d="M15.4597 77.5508C16.2943 75.7551 17.7164 74.2034 19.7262 72.8962C21.7356 71.589 24.1277 70.8446 26.9018 70.6626C29.6757 70.481 32.5373 71.075 35.4863 72.4455C38.227 73.7193 40.4118 75.35 42.0402 77.3362C43.6684 79.3229 44.65 81.4513 44.9858 83.722C45.3209 85.9928 45.0145 88.1488 44.0656 90.1904C43.3188 91.7973 42.3381 93.0542 41.1238 93.9607C39.9093 94.8675 38.6486 95.5515 37.3424 96.0134C36.0359 96.475 33.7369 97.2055 30.4454 98.2041C29.5302 98.4914 28.7754 98.7673 28.1818 99.0312C27.5877 99.2954 27.1104 99.5677 26.7503 99.8486C26.3898 100.129 26.0718 100.43 25.7969 100.75C25.5214 101.07 25.0644 101.646 24.4263 102.475C23.1532 104.274 21.5715 104.734 19.6814 103.856C18.6983 103.399 18.0204 102.693 17.6484 101.739C17.2757 100.784 17.3841 99.6737 17.9728 98.407C18.7108 96.819 19.5953 95.5579 20.6274 94.6238C21.6591 93.6897 22.7857 92.9719 24.0073 92.4707C25.2284 91.9693 26.8102 91.4347 28.7527 90.8662C30.4541 90.3699 31.7 89.9775 32.4891 89.6891C33.2783 89.4007 34.0108 89.0117 34.687 88.5211C35.3631 88.0309 35.8812 87.3984 36.2415 86.623C36.9443 85.1109 36.9746 83.5734 36.3334 82.0109C35.6916 80.4487 34.4823 79.2542 32.7056 78.4286C30.6259 77.462 28.851 77.2749 27.3807 77.8674C25.91 78.4596 24.3601 79.6185 22.7307 81.3438C21.095 83.1814 19.3794 83.6826 17.5837 82.848C16.5248 82.3559 15.805 81.5676 15.4247 80.4826C15.0437 79.3978 15.0555 78.4206 15.4597 77.5508ZM14.8538 115.059C13.7006 114.523 12.8675 113.682 12.3545 112.536C11.8411 111.389 11.8966 110.146 12.5205 108.803C13.074 107.612 13.9552 106.804 15.165 106.377C16.3743 105.951 17.5841 106.019 18.7941 106.581C19.985 107.135 20.7978 108.007 21.2331 109.197C21.6678 110.388 21.609 111.579 21.0555 112.77C20.4405 114.093 19.5319 114.935 18.33 115.296C17.128 115.656 15.969 115.578 14.8538 115.059Z" fill="#CBD0F4"/>
<path d="M191.247 101.14C190.946 102.25 190.285 103.088 189.265 103.656C187.534 104.618 185.787 104.243 184.022 102.528C182.272 100.926 180.642 99.8821 179.133 99.398C177.623 98.9136 175.867 99.2288 173.862 100.344C172.15 101.296 171.031 102.575 170.504 104.179C169.977 105.784 170.119 107.316 170.93 108.773C171.345 109.52 171.908 110.113 172.617 110.553C173.328 110.993 174.086 111.328 174.894 111.559C175.702 111.789 176.973 112.09 178.706 112.462C180.685 112.888 182.301 113.307 183.555 113.718C184.81 114.13 185.986 114.764 187.082 115.621C188.179 116.478 189.153 117.672 190.004 119.202C190.683 120.423 190.872 121.522 190.569 122.501C190.267 123.48 189.642 124.233 188.695 124.76C186.873 125.773 185.263 125.429 183.862 123.727C183.166 122.946 182.668 122.405 182.37 122.106C182.073 121.806 181.734 121.53 181.354 121.276C180.975 121.022 180.479 120.785 179.867 120.564C179.256 120.344 178.483 120.124 177.55 119.903C174.194 119.146 171.849 118.584 170.512 118.218C169.176 117.852 167.869 117.261 166.592 116.445C165.315 115.629 164.246 114.446 163.385 112.898C162.29 110.93 161.828 108.802 161.998 106.513C162.168 104.224 162.993 102.03 164.473 99.9305C165.953 97.8315 168.014 96.0468 170.655 94.5778C173.497 92.9971 176.308 92.1973 179.088 92.1775C181.868 92.158 184.308 92.727 186.407 93.8852C188.506 95.0433 190.037 96.4879 190.999 98.2184C191.465 99.0566 191.548 100.03 191.247 101.14ZM190.872 136.072C189.647 135.8 188.68 135.026 187.97 133.75C187.332 132.602 187.187 131.419 187.534 130.2C187.882 128.981 188.63 128.052 189.777 127.414C190.943 126.766 192.145 126.61 193.382 126.948C194.62 127.285 195.557 128.028 196.195 129.175C196.915 130.469 197.061 131.706 196.632 132.887C196.203 134.067 195.433 134.966 194.322 135.585C193.247 136.182 192.097 136.345 190.872 136.072Z" fill="#CBD0F4"/>
<path d="M73.9682 114.298C74.4353 114.94 74.7028 115.74 74.7702 116.698C74.8378 117.657 74.6338 118.64 74.1585 119.647C73.6831 120.654 72.9188 121.542 71.8653 122.309C70.8863 123.022 69.8902 123.471 68.8777 123.655C67.865 123.84 66.9283 123.77 66.0673 123.447C65.2064 123.123 64.5103 122.596 63.9792 121.867C63.5612 121.293 63.3113 120.705 63.2297 120.103C63.1479 119.502 63.1532 118.927 63.2452 118.379C63.3373 117.832 63.5281 116.884 63.8178 115.536C63.895 115.16 63.945 114.842 63.9678 114.582C63.9907 114.323 63.9881 114.103 63.9596 113.922C63.9313 113.741 63.8878 113.571 63.8289 113.413C63.7702 113.254 63.6574 112.982 63.4908 112.597C63.1076 111.801 63.2538 111.157 63.929 110.666C64.2802 110.41 64.6592 110.31 65.0661 110.365C65.473 110.42 65.8411 110.673 66.1707 111.126C66.5837 111.693 66.8538 112.248 66.9806 112.792C67.1075 113.335 67.14 113.869 67.0783 114.394C67.0167 114.92 66.8966 115.578 66.7184 116.369C66.5616 117.062 66.457 117.575 66.4047 117.908C66.3524 118.24 66.3464 118.572 66.3869 118.905C66.4273 119.237 66.5483 119.541 66.75 119.818C67.1433 120.359 67.6763 120.668 68.3485 120.747C69.0207 120.826 69.6743 120.634 70.309 120.172C71.0519 119.631 71.4624 119.045 71.5405 118.415C71.6188 117.784 71.5138 117.016 71.2258 116.109C70.8997 115.179 71.0575 114.48 71.699 114.013C72.0772 113.738 72.4934 113.639 72.9475 113.716C73.4018 113.794 73.7419 113.988 73.9682 114.298ZM60.9409 106.797C61.3528 106.497 61.8096 106.368 62.311 106.411C62.8125 106.454 63.2377 106.715 63.5869 107.195C63.8967 107.62 64.0088 108.086 63.9231 108.593C63.8374 109.1 63.5786 109.51 63.1463 109.825C62.7209 110.135 62.2573 110.25 61.7555 110.172C61.2538 110.092 60.8479 109.84 60.5381 109.415C60.1938 108.942 60.0753 108.46 60.1825 107.969C60.2897 107.478 60.5425 107.087 60.9409 106.797Z" fill="#CBD0F4"/>
<path d="M150.877 15.1237C151.275 15.6697 151.502 16.3505 151.56 17.1661C151.617 17.9816 151.444 18.8182 151.039 19.6757C150.634 20.5331 149.984 21.2883 149.087 21.9412C148.254 22.548 147.407 22.9299 146.545 23.087C145.683 23.2441 144.886 23.1848 144.153 22.9094C143.42 22.6338 142.828 22.1858 142.376 21.5651C142.02 21.0766 141.808 20.5762 141.738 20.0641C141.668 19.5519 141.673 19.0627 141.751 18.5968C141.83 18.1307 141.992 17.3242 142.239 16.1774C142.304 15.8569 142.347 15.5861 142.366 15.3654C142.386 15.1445 142.383 14.9571 142.359 14.8033C142.335 14.6493 142.298 14.5048 142.248 14.3698C142.198 14.2347 142.102 14.0032 141.96 13.6757C141.634 12.9984 141.759 12.4506 142.333 12.0321C142.632 11.8145 142.955 11.729 143.301 11.7759C143.647 11.8227 143.961 12.0387 144.241 12.4238C144.593 12.9065 144.822 13.3789 144.93 13.8412C145.038 14.3034 145.066 14.7582 145.013 15.2054C144.961 15.6525 144.859 16.2128 144.707 16.8861C144.574 17.4757 144.485 17.9122 144.44 18.1952C144.396 18.4783 144.391 18.7611 144.425 19.044C144.459 19.3267 144.562 19.5858 144.734 19.8215C145.069 20.2812 145.522 20.5446 146.094 20.6118C146.667 20.6787 147.223 20.5156 147.763 20.1223C148.395 19.6619 148.745 19.1634 148.811 18.6269C148.878 18.0903 148.788 17.4364 148.543 16.665C148.266 15.8732 148.4 15.2786 148.946 14.8811C149.268 14.6467 149.622 14.5624 150.008 14.6284C150.395 14.6942 150.685 14.8593 150.877 15.1237ZM139.79 8.73924C140.141 8.48393 140.529 8.37461 140.956 8.41117C141.383 8.44767 141.745 8.66998 142.042 9.0781C142.306 9.44017 142.401 9.83671 142.328 10.2681C142.255 10.6992 142.035 11.0488 141.667 11.3167C141.305 11.5804 140.91 11.6785 140.483 11.6115C140.056 11.5442 139.711 11.3297 139.447 10.9676C139.154 10.5653 139.053 10.155 139.145 9.73694C139.236 9.31882 139.451 8.98613 139.79 8.73924Z" fill="#CBD0F4"/>
<path d="M200.31 62.334C200.723 62.2634 201.102 62.3535 201.446 62.6041C202.029 63.0291 202.173 63.6647 201.876 64.5111C201.614 65.3356 201.519 66.0347 201.59 66.6083C201.661 67.1818 202.034 67.7146 202.71 68.2068C203.288 68.6273 203.882 68.8017 204.494 68.7301C205.105 68.6583 205.59 68.3767 205.948 67.8854C206.132 67.6334 206.242 67.3563 206.278 67.0541C206.315 66.7518 206.31 66.4495 206.262 66.1469C206.215 65.8443 206.119 65.3777 205.977 64.7475C205.815 64.0276 205.705 63.4288 205.649 62.9508C205.593 62.4727 205.623 61.9866 205.738 61.4925C205.854 60.9983 206.099 60.4933 206.475 59.9773C206.775 59.5656 207.11 59.3347 207.48 59.2848C207.85 59.2346 208.195 59.326 208.514 59.5586C209.129 60.0059 209.262 60.5915 208.913 61.3156C208.762 61.6657 208.659 61.9131 208.606 62.0575C208.552 62.2018 208.512 62.3563 208.487 62.5209C208.461 62.6854 208.458 62.8857 208.479 63.1218C208.5 63.3577 208.545 63.6472 208.616 63.9898C208.879 65.2158 209.053 66.0779 209.137 66.5761C209.22 67.0742 209.225 67.5971 209.151 68.1446C209.076 68.692 208.849 69.227 208.469 69.7492C207.986 70.4127 207.352 70.8915 206.569 71.1862C205.786 71.4806 204.934 71.544 204.012 71.3761C203.091 71.2081 202.185 70.7998 201.294 70.1512C200.336 69.4533 199.641 68.646 199.208 67.7294C198.776 66.8128 198.59 65.9185 198.651 65.0467C198.713 64.1748 198.956 63.4471 199.381 62.8635C199.587 62.5808 199.896 62.4043 200.31 62.334ZM211.923 57.1051C212.02 57.552 211.913 57.9906 211.599 58.4207C211.318 58.8078 210.948 59.037 210.492 59.109C210.035 59.1806 209.614 59.0757 209.227 58.7939C208.833 58.5075 208.598 58.1338 208.52 57.6729C208.442 57.2118 208.544 56.7879 208.826 56.4008C209.143 55.9645 209.53 55.7269 209.986 55.6879C210.443 55.6488 210.858 55.7657 211.233 56.0386C211.595 56.3025 211.825 56.6581 211.923 57.1051Z" fill="#CBD0F4"/>
<path d="M94.6529 2.44152C94.9939 1.77494 95.5533 1.20889 96.3314 0.743683C97.1093 0.27843 98.0238 0.0313169 99.0746 0.00215055C100.125 -0.0269005 101.198 0.238373 102.293 0.79833C103.31 1.31874 104.112 1.96607 104.699 2.73981C105.286 3.51373 105.627 4.33193 105.721 5.19472C105.815 6.05754 105.669 6.86777 105.281 7.62566C104.976 8.22217 104.588 8.6831 104.116 9.00828C103.644 9.33359 103.158 9.57405 102.658 9.72992C102.157 9.8857 101.278 10.1289 100.02 10.4592C99.6705 10.5547 99.3814 10.6482 99.1533 10.7395C98.9251 10.8308 98.7408 10.9269 98.6008 11.0279C98.4606 11.1288 98.3361 11.2378 98.2276 11.3549C98.119 11.472 97.9381 11.6828 97.6851 11.9871C97.1784 12.6488 96.5742 12.8 95.8726 12.4411C95.5077 12.2544 95.2616 11.9781 95.1346 11.6121C95.0075 11.2462 95.0642 10.8281 95.3048 10.3579C95.6063 9.7684 95.9585 9.30451 96.3618 8.96631C96.765 8.62805 97.2009 8.37293 97.6696 8.201C98.1382 8.02899 98.7435 7.84955 99.4856 7.66246C100.136 7.49922 100.612 7.36872 100.914 7.27104C101.216 7.17331 101.499 7.03678 101.761 6.86108C102.024 6.68551 102.229 6.45391 102.376 6.16607C102.663 5.60476 102.696 5.02422 102.476 4.42469C102.256 3.82527 101.816 3.35667 101.157 3.01932C100.385 2.62444 99.7167 2.52839 99.1527 2.73129C98.5885 2.93405 97.9864 3.34982 97.3461 3.97849C96.7018 4.64948 96.0464 4.81435 95.3798 4.47338C94.9867 4.27231 94.726 3.96421 94.5978 3.54878C94.4693 3.13345 94.4877 2.76439 94.6529 2.44152ZM93.8886 16.6055C93.4605 16.3865 93.1577 16.0567 92.9802 15.6163C92.8026 15.1758 92.8413 14.7066 93.0963 14.2082C93.3224 13.7661 93.6669 13.4732 94.1301 13.3294C94.5931 13.1856 95.0493 13.2285 95.4984 13.4582C95.9405 13.6844 96.2352 14.0255 96.3827 14.4816C96.5299 14.9376 96.4907 15.3867 96.2646 15.8288C96.0133 16.3201 95.658 16.6253 95.1987 16.7444C94.7394 16.8635 94.3026 16.8172 93.8886 16.6055Z" fill="#CBD0F4"/>
<path d="M150.551 148.629C150.067 148.058 149.759 147.324 149.628 146.427C149.498 145.53 149.621 144.591 149.997 143.61C150.374 142.628 151.031 141.74 151.968 140.944C152.839 140.205 153.745 139.712 154.685 139.468C155.625 139.223 156.511 139.223 157.344 139.467C158.177 139.711 158.869 140.158 159.42 140.807C159.853 141.317 160.13 141.853 160.249 142.414C160.368 142.974 160.403 143.515 160.355 144.037C160.307 144.559 160.194 145.464 160.016 146.752C159.97 147.112 159.945 147.415 159.941 147.66C159.938 147.906 159.956 148.113 159.996 148.281C160.035 148.45 160.088 148.606 160.154 148.752C160.221 148.897 160.346 149.145 160.53 149.495C160.946 150.217 160.854 150.833 160.253 151.343C159.94 151.608 159.591 151.729 159.204 151.706C158.817 151.683 158.453 151.47 158.111 151.067C157.683 150.563 157.39 150.059 157.232 149.557C157.075 149.055 157.007 148.554 157.028 148.056C157.049 147.557 157.116 146.929 157.228 146.172C157.327 145.509 157.389 145.019 157.415 144.703C157.441 144.386 157.423 144.073 157.362 143.763C157.301 143.453 157.166 143.175 156.956 142.929C156.548 142.448 156.025 142.194 155.387 142.167C154.749 142.14 154.147 142.367 153.583 142.846C152.922 143.407 152.576 143.987 152.547 144.586C152.518 145.184 152.67 145.9 153.005 146.733C153.377 147.585 153.278 148.254 152.707 148.738C152.37 149.024 151.986 149.146 151.553 149.105C151.12 149.064 150.786 148.906 150.551 148.629ZM163.336 154.774C162.969 155.085 162.548 155.238 162.074 155.233C161.599 155.228 161.18 155.012 160.818 154.585C160.497 154.207 160.359 153.776 160.404 153.293C160.449 152.81 160.664 152.406 161.048 152.079C161.427 151.758 161.855 151.617 162.333 151.656C162.81 151.695 163.21 151.904 163.531 152.282C163.888 152.703 164.034 153.148 163.967 153.618C163.901 154.088 163.69 154.473 163.336 154.774Z" fill="#CBD0F4"/>
<path d="M239 194.261C239 194.47 238.832 194.638 238.625 194.638H0.375572C0.161461 194.638 -0.0106911 194.458 0.000518035 194.241C0.0103135 194.039 0.193651 193.886 0.396579 193.886H238.625C238.832 193.886 239 194.054 239 194.261Z" fill="#454E93"/>
<path d="M33.1153 146.206C29.2303 148.149 33.1153 156.635 32.3703 159.615C31.6254 162.595 29.3907 164.829 30.1356 167.809C30.8805 170.789 32.3703 173.023 32.3703 176.003C32.3703 178.983 27.9008 181.962 28.6458 187.177C29.3907 192.391 31.6254 193.881 31.6254 193.881H48.0136C48.0136 193.881 49.5035 192.391 49.5035 189.412C49.5035 186.432 45.7789 183.452 46.5238 181.962C47.2687 180.473 50.2484 177.493 49.5035 172.279C48.7585 167.064 46.5238 167.064 45.7789 164.084C45.0339 161.105 46.5238 159.615 45.7789 157.38C45.0339 155.145 41.3094 152.911 40.5644 151.421C39.8195 149.931 37.5848 143.972 33.1153 146.206Z" fill="#5769FA"/>
<path d="M45.645 172.365C45.4901 172.234 45.2529 172.253 45.1205 172.412C44.3813 173.296 42.4799 175.455 41.2578 176.433C41.2904 175.912 41.3094 175.395 41.3094 174.886C41.3094 172.564 41.3092 170.202 41.1997 167.936C41.1996 167.927 41.1993 167.918 41.1985 167.91C41.0995 165.878 40.9122 163.924 40.5572 162.149C39.805 158.389 36.1793 153.282 36.0258 153.066C35.9058 152.899 35.6745 152.862 35.5057 152.98C35.3384 153.1 35.2998 153.332 35.4191 153.5C35.4562 153.551 39.1066 158.693 39.8268 162.295C40.1025 163.674 40.2751 165.169 40.3832 166.73C39.0296 165.335 36.7534 164.183 36.634 164.124C36.4521 164.031 36.2266 164.105 36.1342 164.29C36.0426 164.474 36.1168 164.698 36.3001 164.79C36.3338 164.807 39.6093 166.464 40.4588 168.039C40.5642 170.268 40.5644 172.597 40.5644 174.886C40.5644 175.616 40.5237 176.369 40.4593 177.123C40.4592 177.124 40.4592 177.125 40.4591 177.125C40.3499 178.404 40.1724 179.686 40.0087 180.87C39.7612 182.653 39.5515 184.166 39.6276 185.22C38.3274 184.473 36.1644 183.6 35.8607 183.479C35.6701 183.403 35.4533 183.496 35.3769 183.687C35.3006 183.877 35.3929 184.094 35.5843 184.17C36.5791 184.568 39.2448 185.706 39.8885 186.286C40.7243 187.964 41.9913 190.795 42.1085 193.209C42.118 193.408 42.2824 193.563 42.4803 193.563C42.4861 193.563 42.4919 193.563 42.4985 193.563C42.7036 193.553 42.8622 193.378 42.852 193.173C42.7291 190.616 41.3872 187.617 40.5252 185.893C40.1644 185.171 40.4473 183.131 40.7463 180.972C40.9028 179.842 41.0711 178.624 41.1826 177.398C42.6835 176.478 45.5654 173.042 45.6923 172.89C45.824 172.732 45.8029 172.497 45.645 172.365Z" fill="white"/>
<path d="M173.231 193.881C173.133 193.638 173.038 193.386 172.95 193.13C172.519 191.887 172.239 190.545 172.457 189.453C173.033 186.576 175.91 186.576 176.485 184.275C177.06 181.974 179.936 181.399 179.936 179.098C179.936 176.796 181.087 173.345 182.814 172.194C184.539 171.044 187.991 172.194 189.141 169.894C190.291 167.591 189.141 165.291 190.866 164.14C192.593 162.99 196.045 164.715 197.77 162.99C199.496 161.264 202.373 158.387 204.099 158.962C206.414 159.735 204.674 162.99 204.674 165.291C204.674 167.591 205.824 173.92 203.524 175.07C201.223 176.221 197.77 178.523 197.77 180.824C197.77 183.124 197.195 186 194.894 187.152C192.593 188.303 190.291 188.303 190.291 190.028C190.291 191.404 191.023 192.049 191.027 193.13C191.029 193.356 190.997 193.604 190.918 193.881H173.231Z" fill="#5769FA"/>
<path d="M201.786 170.676C201.742 170.523 201.584 170.435 201.43 170.48C201.402 170.488 198.77 171.241 196.908 171.213C198.205 166.298 200.996 165.286 201.027 165.276C201.177 165.225 201.258 165.063 201.208 164.912C201.157 164.762 200.994 164.681 200.844 164.73C200.696 164.78 197.217 166.009 196.049 172.43C195.778 173.924 194.82 175.335 193.509 176.693C192.398 175.591 192.055 172.077 192.018 170.748C192.013 170.592 191.885 170.468 191.73 170.468C191.727 170.468 191.724 170.468 191.722 170.468C191.563 170.473 191.438 170.605 191.442 170.764C191.448 170.97 191.596 175.582 193.104 177.1C191.653 178.517 189.847 179.878 188.069 181.216C186.165 182.65 184.32 184.041 182.907 185.473C182.684 184.897 182.634 183.06 182.812 181.138C182.827 180.98 182.71 180.839 182.552 180.825C182.395 180.817 182.254 180.926 182.239 181.085C182.126 182.304 181.953 184.984 182.503 185.897C181.561 186.923 178.074 190.644 177.741 191.752C177.695 191.905 177.782 192.065 177.934 192.11C177.962 192.119 177.989 192.123 178.017 192.123C178.14 192.123 178.255 192.042 178.292 191.917C178.996 189.572 184.369 184.749 187.301 182.518C188.906 184.016 193.249 184.264 193.441 184.275C193.446 184.275 193.451 184.275 193.456 184.275C193.608 184.275 193.735 184.156 193.743 184.003C193.751 183.844 193.63 183.709 193.471 183.7C193.427 183.698 189.264 183.46 187.767 182.165C187.982 182.002 188.198 181.839 188.415 181.676C190.295 180.26 192.206 178.82 193.719 177.3C193.728 177.291 193.737 177.283 193.745 177.273C195.217 175.788 196.308 174.226 196.615 172.534C196.662 172.275 196.714 172.026 196.768 171.785C196.853 171.788 196.939 171.79 197.027 171.79C198.96 171.79 201.474 171.066 201.59 171.032C201.742 170.988 201.831 170.828 201.786 170.676Z" fill="white"/>
<path d="M174.647 193.881L117.609 193.881C113.895 193.881 110.571 192.218 108.339 189.596C106.531 187.472 105.44 184.72 105.44 181.713L105.44 42.0272C105.44 38.8688 106.644 35.9914 108.617 33.8285C110.842 31.3895 114.047 29.8591 117.609 29.8591L174.647 29.8591C178.007 29.8591 181.049 31.2211 183.251 33.4231C185.453 35.625 186.815 38.6671 186.815 42.0272L186.815 181.713C186.815 185.461 185.121 188.813 182.456 191.045C180.343 192.815 177.619 193.881 174.647 193.881Z" fill="#191C38"/>
<path d="M173.588 34.2941L117.862 34.2941C113.565 34.2941 110.082 37.777 110.082 42.0735L110.082 180.461C110.082 184.758 113.565 188.241 117.862 188.241L173.588 188.241C177.885 188.241 181.367 184.758 181.367 180.461L181.367 42.0735C181.367 37.777 177.884 34.2941 173.588 34.2941Z" fill="white"/>
<path d="M163.106 45.7632H129.15C128.421 45.7632 127.83 45.1724 127.83 44.4435C127.83 43.7146 128.421 43.1238 129.15 43.1238H163.106C163.835 43.1238 164.426 43.7146 164.426 44.4435C164.426 45.1724 163.835 45.7632 163.106 45.7632Z" fill="#E8EAF9"/>
<path d="M119.657 47.857C121.543 47.857 123.071 46.3287 123.071 44.4434C123.071 42.5582 121.543 41.0299 119.657 41.0299C117.772 41.0299 116.244 42.5582 116.244 44.4434C116.244 46.3287 117.772 47.857 119.657 47.857Z" fill="#E8EAF9"/>
<path d="M174.979 46.8115C175.55 46.8115 176.012 46.3492 176.012 45.7789C176.012 45.2086 175.55 44.7463 174.979 44.7463C174.409 44.7463 173.947 45.2086 173.947 45.7789C173.947 46.3492 174.409 46.8115 174.979 46.8115Z" fill="#E8EAF9"/>
<path d="M174.979 44.1406C175.55 44.1406 176.012 43.6783 176.012 43.108C176.012 42.5377 175.55 42.0754 174.979 42.0754C174.409 42.0754 173.947 42.5377 173.947 43.108C173.947 43.6783 174.409 44.1406 174.979 44.1406Z" fill="#E8EAF9"/>
<path d="M164.979 81.7264H127.276C123.054 81.7264 119.632 78.3037 119.632 74.0816C119.632 69.8596 123.054 66.4369 127.276 66.4369H164.979C169.201 66.4369 172.624 69.8596 172.624 74.0816C172.624 78.3037 169.201 81.7264 164.979 81.7264Z" fill="#23284F"/>
<path d="M169.36 81.9624C173.712 77.6099 173.712 70.5532 169.36 66.2007C165.007 61.8482 157.95 61.8482 153.598 66.2007C149.245 70.5532 149.245 77.6099 153.598 81.9624C157.95 86.3149 165.007 86.3149 169.36 81.9624Z" fill="#3748CC"/>
<path d="M160.122 78.7727C159.885 78.7727 159.655 78.6847 159.478 78.5236L156.683 75.982C156.291 75.6261 156.263 75.0204 156.619 74.629C156.974 74.2375 157.58 74.2088 157.972 74.5647L159.982 76.3924L164.859 69.7797C165.173 69.3541 165.773 69.2636 166.199 69.5775C166.624 69.8915 166.715 70.4912 166.401 70.9169L160.893 78.3835C160.732 78.6017 160.487 78.7414 160.217 78.7681C160.185 78.7712 160.154 78.7727 160.122 78.7727Z" fill="white"/>
<path d="M164.979 114.961H127.276C123.054 114.961 119.632 111.538 119.632 107.316C119.632 103.094 123.054 99.6715 127.276 99.6715H164.979C169.201 99.6715 172.624 103.094 172.624 107.316C172.624 111.538 169.201 114.961 164.979 114.961Z" fill="#CBD0F4"/>
<path d="M138.658 115.197C143.01 110.845 143.01 103.788 138.658 99.4354C134.305 95.0829 127.249 95.0829 122.896 99.4354C118.544 103.788 118.544 110.845 122.896 115.197C127.249 119.55 134.305 119.55 138.658 115.197Z" fill="#23284F"/>
<path d="M132.109 107.316L134.924 104.033C135.287 103.61 135.238 102.971 134.814 102.608C134.39 102.244 133.752 102.293 133.389 102.717L130.777 105.763L128.165 102.717C127.802 102.293 127.164 102.244 126.74 102.608C126.316 102.971 126.267 103.61 126.63 104.033L129.445 107.316L126.63 110.599C126.267 111.023 126.316 111.661 126.74 112.025C126.93 112.188 127.164 112.268 127.397 112.268C127.682 112.268 127.965 112.149 128.165 111.915L130.777 108.87L133.389 111.915C133.588 112.149 133.872 112.268 134.157 112.268C134.389 112.268 134.623 112.188 134.814 112.025C135.238 111.661 135.287 111.023 134.924 110.599L132.109 107.316Z" fill="white"/>
<path d="M169.71 141.837H122.545C120.719 141.837 119.239 140.356 119.239 138.53C119.239 136.704 120.719 135.224 122.545 135.224H169.71C171.536 135.224 173.017 136.704 173.017 138.53C173.017 140.356 171.536 141.837 169.71 141.837Z" fill="#C7CDF9"/>
<path d="M141.174 149.492H121.064C120.056 149.492 119.239 148.675 119.239 147.667C119.239 146.659 120.056 145.842 121.064 145.842H141.174C142.182 145.842 142.999 146.659 142.999 147.667C142.999 148.675 142.182 149.492 141.174 149.492ZM171.192 149.492H149.626C148.618 149.492 147.801 148.675 147.801 147.667C147.801 146.659 148.618 145.842 149.626 145.842H171.192C172.2 145.842 173.017 146.659 173.017 147.667C173.017 148.675 172.2 149.492 171.192 149.492ZM130.68 155.769H121.064C120.056 155.769 119.239 154.952 119.239 153.944C119.239 152.937 120.056 152.12 121.064 152.12H130.68C131.688 152.12 132.505 152.937 132.505 153.944C132.505 154.952 131.688 155.769 130.68 155.769ZM171.192 155.769H139.132C138.124 155.769 137.307 154.952 137.307 153.944C137.307 152.937 138.124 152.12 139.132 152.12H171.192C172.2 152.12 173.017 152.937 173.017 153.944C173.017 154.952 172.2 155.769 171.192 155.769Z" fill="#E8EAF9"/>
<path d="M87.6988 186.087L91.7553 188.155L89.3476 191.452L82.2235 189.228C82.2235 189.228 82.9285 187.787 82.8927 187.268C82.8569 186.75 87.6988 186.087 87.6988 186.087Z" fill="#C5CBFF"/>
<path d="M82.6925 173.564V188.128H82.6967L87.9642 187.89L88.4204 186.456L87.9419 186.22L87.9435 186.212L88.3828 182.598L88.6025 180.795L89.4285 174.002L82.6925 173.564Z" fill="#C5CBFF"/>
<path d="M81.1364 192.16L99.8479 192.17C98.9341 190.596 96.2788 190.062 94.9441 189.741C93.2117 189.322 90.6633 186.455 90.6633 186.455C89.4097 186.873 89.2102 188.964 89.2102 188.964C89.2102 188.964 88.8717 189.381 86.2834 189.421C83.695 189.461 83.3372 188.115 82.4607 188.088C81.8983 188.07 81.1364 192.16 81.1364 192.16Z" fill="#5769FA"/>
<path d="M81.1364 192.171V193.471C81.1364 193.697 81.3204 193.881 81.547 193.881H100.121C100.239 193.203 100.122 192.641 99.8479 192.171H81.1364ZM93.6355 190.934C93.6957 190.934 93.7555 190.908 93.7972 190.859L94.9558 189.479C95.0308 189.39 95.0192 189.257 94.9299 189.182C94.8406 189.107 94.7074 189.119 94.6326 189.208L93.474 190.587C93.3989 190.676 93.4106 190.809 93.4998 190.884C93.5394 190.918 93.5876 190.934 93.6355 190.934ZM92.173 190.328C92.2333 190.328 92.293 190.303 92.3348 190.253L93.4933 188.874C93.5684 188.785 93.5567 188.651 93.4675 188.577C93.3781 188.502 93.245 188.513 93.1701 188.602L92.0115 189.982C91.9365 190.071 91.9481 190.204 92.0374 190.279C92.077 190.312 92.1251 190.328 92.173 190.328Z" fill="#23284F"/>
<path d="M82.6925 180.43V182.495C83.2488 182.63 84.1637 182.767 85.6308 182.799C86.9227 182.827 87.8002 182.726 88.3828 182.598L88.6025 180.795L82.6925 180.43Z" fill="#7983D6"/>
<path d="M59.0114 186.087L63.0679 188.155L60.6602 191.452L53.5361 189.228C53.5361 189.228 54.2411 187.787 54.2053 187.268C54.1695 186.75 59.0114 186.087 59.0114 186.087Z" fill="#C5CBFF"/>
<path d="M54.0046 188.127V188.128H54.0088C54.0088 188.128 54.0088 188.128 54.0102 188.128L59.2778 187.89L59.7339 186.456V186.455L60.991 182.991L61.5556 181.434L64.2519 174.002L57.235 173.68L55.9167 179.576L55.4675 181.582L54.0046 188.127Z" fill="#C5CBFF"/>
<path d="M52.449 192.16L71.1605 192.17C70.2467 190.596 67.5914 190.062 66.2567 189.741C64.5243 189.322 61.9759 186.455 61.9759 186.455C60.7223 186.873 60.5228 188.964 60.5228 188.964C60.5228 188.964 60.1843 189.381 57.596 189.421C55.0077 189.461 54.6499 188.115 53.7734 188.088C53.2109 188.07 52.449 192.16 52.449 192.16Z" fill="#5769FA"/>
<path d="M52.449 192.171V193.471C52.449 193.697 52.633 193.881 52.8596 193.881H71.4333C71.5518 193.203 71.4346 192.641 71.1605 192.171H52.449ZM64.9481 190.934C65.0083 190.934 65.0681 190.908 65.1098 190.859L66.2684 189.479C66.3434 189.39 66.3318 189.257 66.2425 189.182C66.1532 189.107 66.02 189.119 65.9452 189.208L64.7866 190.587C64.7116 190.676 64.7232 190.809 64.8124 190.884C64.852 190.918 64.9002 190.934 64.9481 190.934ZM63.4856 190.328C63.5459 190.328 63.6057 190.303 63.6474 190.253L64.8059 188.874C64.881 188.785 64.8693 188.651 64.7801 188.577C64.6907 188.502 64.5576 188.513 64.4827 188.602L63.3242 189.982C63.2491 190.071 63.2607 190.204 63.35 190.279C63.3896 190.312 63.4377 190.328 63.4856 190.328Z" fill="#23284F"/>
<path d="M55.4674 181.583C56.0278 181.848 56.9456 182.214 58.3014 182.553C59.5029 182.854 60.3901 182.961 60.9908 182.991L61.5554 181.434L55.9166 179.576L55.4674 181.583Z" fill="#7983D6"/>
<path d="M75.7312 135.971C78.041 142.126 79.9002 147.384 79.9002 148.371C79.8988 150.978 79.8349 179.786 80.4857 180.847C80.5761 180.993 80.8458 181.124 81.2449 181.238C83.7313 181.938 91.253 181.948 91.755 180.847C92.3377 179.567 95.9046 151.362 95.9046 147.187C95.9046 143.012 86.5361 101.703 86.5361 101.703L70.3371 101.829L66.9204 113.338C66.9204 113.338 71.9349 125.863 75.7312 135.971Z" fill="#23284F"/>
<path d="M79.9002 148.371C79.8988 150.978 79.8348 179.786 80.4856 180.847C80.576 180.993 80.8458 181.124 81.2449 181.238C83.291 163.504 83.2043 151.418 82.7829 148.075C82.1245 142.85 76.8423 135.863 76.8423 135.863L75.7312 135.971C78.041 142.126 79.9002 147.384 79.9002 148.371Z" fill="#191C38"/>
<path d="M55.5903 109.846C55.5903 109.846 60.5441 143.264 60.216 147.655C59.8879 152.047 52.8927 177.54 53.2144 178.992C53.5361 180.444 62.6025 183.111 64.0649 181.89C65.5274 180.67 75.8124 156.791 76.8337 149.588C77.855 142.385 78.3795 101.702 78.3795 101.702L62.4673 101.952C58.2852 102.018 55.0824 105.694 55.5903 109.846Z" fill="#23284F"/>
<path d="M77.9164 119.322C77.9518 119.322 77.9874 119.309 78.0148 119.282L78.9048 118.415C79.72 117.621 80.2017 116.558 80.261 115.421L80.5492 109.903C80.5533 109.825 80.4936 109.759 80.416 109.755C80.3385 109.751 80.2722 109.81 80.2682 109.888L79.98 115.406C79.9243 116.472 79.4727 117.469 78.7084 118.214L77.8184 119.081C77.7627 119.135 77.7616 119.224 77.8158 119.28C77.8433 119.308 77.8798 119.322 77.9164 119.322Z" fill="#191C38"/>
<path d="M77.4593 140.269C77.5357 140.269 77.5985 140.208 77.6002 140.132L78.1848 113.342C78.1865 113.265 78.1248 113.2 78.0471 113.199C77.9711 113.196 77.905 113.259 77.9034 113.336L77.3188 140.126C77.3171 140.203 77.3787 140.268 77.4564 140.269C77.4574 140.269 77.4584 140.269 77.4593 140.269Z" fill="#191C38"/>
<path d="M121.379 73.4297C121.151 73.3165 121.011 73.8869 120.405 74.0737C119.799 74.2604 117.376 74.5636 116.626 75.6658C115.876 76.7681 113.132 79.6254 112.749 79.9045C112.365 80.1836 100.48 86.502 95.0313 89.423C94.4632 85.6867 93.5499 82.7679 93.5499 82.7679L85.9453 85.1382L89.8644 95.8291C90.6466 97.963 93.2616 98.7435 95.0849 97.3867C101.588 92.5477 114.51 82.9349 114.653 82.851C114.842 82.7388 118.268 81.4533 119.277 81.3519C119.682 81.3111 120.588 80.7903 120.848 80.5313C121.108 80.2724 121.407 80.3252 121.613 79.9584C121.818 79.5917 121.781 79.3752 121.909 79.0365C122.001 78.7949 122.326 78.7513 122.392 78.2257C122.459 77.7001 122.101 77.6991 122.051 77.5117C122.001 77.3244 122.271 77.0811 122.19 76.779C122.109 76.477 121.769 76.3777 121.708 76.1916C121.661 76.0501 124.526 74.3592 125.55 73.3598C125.872 73.0448 125.53 72.4295 125.102 72.5796C123.817 73.0299 121.221 74.8465 121.286 74.7984C121.52 74.6252 121.805 73.6416 121.379 73.4297Z" fill="#C5CBFF"/>
<path d="M117.81 77.8952C117.877 77.9613 117.969 78.0244 118.096 78.0787C118.787 78.3743 121.528 77.7269 121.838 77.6521C121.911 77.6346 121.955 77.5617 121.938 77.4893C121.92 77.4168 121.848 77.3723 121.775 77.3897C120.956 77.5871 118.718 78.0511 118.202 77.8306C118.019 77.7521 117.924 77.6513 117.919 77.5308C117.911 77.3405 118.113 77.1171 118.313 77.011C118.585 76.8672 120.332 76.5372 121.441 76.3505C121.514 76.3381 121.564 76.2685 121.551 76.195C121.539 76.1216 121.469 76.072 121.396 76.0844C121.109 76.1327 118.584 76.5623 118.187 76.7725C117.91 76.9194 117.636 77.2309 117.649 77.5421C117.653 77.6455 117.689 77.7752 117.81 77.8952Z" fill="#7983D6"/>
<path d="M117.976 79.0797C118.041 79.1436 118.119 79.2017 118.211 79.2519C118.753 79.551 121.434 79.2201 121.655 79.1819C121.728 79.1693 121.777 79.0994 121.765 79.026C121.752 78.9525 121.682 78.9034 121.609 78.9161C121.083 79.007 118.735 79.2331 118.341 79.0157C118.149 78.9099 118.036 78.7607 118.039 78.6168C118.042 78.4469 118.201 78.2741 118.487 78.1301C118.553 78.0966 118.58 78.0154 118.546 77.9489C118.513 77.8822 118.432 77.8556 118.365 77.8891C117.879 78.1342 117.773 78.4174 117.769 78.6118C117.766 78.7815 117.839 78.9437 117.976 79.0797Z" fill="#7983D6"/>
<path d="M118.189 80.2347C118.217 80.2625 118.248 80.288 118.282 80.3107C118.689 80.5826 120.315 80.6238 120.499 80.6276C120.574 80.6291 120.635 80.57 120.637 80.4955C120.638 80.4209 120.579 80.3593 120.505 80.3578C119.84 80.3441 118.689 80.2582 118.432 80.0864C118.31 80.0051 118.256 79.8661 118.289 79.7241C118.326 79.5726 118.475 79.3973 118.786 79.3595C118.86 79.3506 118.913 79.2833 118.904 79.2093C118.895 79.1354 118.827 79.0827 118.753 79.0917C118.305 79.1461 118.084 79.4216 118.027 79.6614C117.977 79.8725 118.04 80.0866 118.189 80.2347ZM119.437 76.2049C119.468 76.2349 119.511 76.2501 119.556 76.242C119.835 76.1916 119.95 76.0107 120.042 75.8654C120.098 75.7763 120.147 75.6995 120.225 75.6589C120.675 75.4248 121.068 75.169 121.084 75.1583C121.147 75.1175 121.164 75.0339 121.123 74.9715C121.082 74.9092 120.999 74.8916 120.937 74.9323C120.933 74.9349 120.538 75.1918 120.101 75.4195C119.958 75.4936 119.881 75.6143 119.814 75.7209C119.734 75.8473 119.67 75.9471 119.508 75.9764C119.435 75.9897 119.386 76.0599 119.4 76.1332C119.405 76.1615 119.418 76.1861 119.437 76.2049Z" fill="#7983D6"/>
<path d="M83.7445 87.3626C84.5184 88.5592 85.221 89.3331 85.7444 89.4031C86.6652 89.5262 88.2509 89.0826 89.8729 88.3898C92.504 87.2674 95.233 85.4914 95.3982 84.4152C95.5745 83.2662 93.9287 77.9047 93.124 75.2233C92.3193 72.5418 90.84 68.1096 87.9486 65.6982C87.9486 65.6982 84.0286 63.9264 81.9489 64.7843C79.8678 65.6422 78.772 68.7002 77.9141 71.2207C77.2424 73.1954 80.9483 83.0381 83.7445 87.3626Z" fill="#5769FA"/>
<path d="M83.7445 87.3625C84.5184 88.5591 85.221 89.333 85.7444 89.403C86.6652 89.5262 88.2509 89.0825 89.8729 88.3898C90.234 83.4271 89.225 75.5773 89.225 75.5773L83.7445 87.3625Z" fill="#0019DF"/>
<path d="M53.8733 110.601C54.6417 111.533 56.5618 112.277 59.0263 112.838C64.5306 114.093 72.7485 114.442 76.9134 113.973C82.9425 113.295 89.7749 110.601 90.5391 108.112C91.1464 106.13 85.4658 98.4509 86.3699 93.2503C87.274 88.0512 91.0681 68.9479 89.0108 66.7213C87.5679 65.158 82.6948 61.0211 76.5314 60.9707C68.473 60.9049 64.5026 62.7355 60.8415 67.5666C60.3391 68.2285 59.8366 69.2026 59.3426 70.416C55.1875 80.6338 51.6509 107.909 53.8733 110.601Z" fill="#5769FA"/>
<path d="M73.1248 55.2006C74.8979 54.1769 75.2755 51.5115 73.9682 49.2472C72.6609 46.9829 70.1638 45.9772 68.3907 47.0009C66.6176 48.0246 66.2399 50.6901 67.5472 52.9544C68.8545 55.2187 71.3517 56.2243 73.1248 55.2006Z" fill="#23284F"/>
<path d="M85.1397 45.7552C86.2286 44.1295 85.7935 41.9289 84.1678 40.8401C82.5421 39.7512 80.3415 40.1863 79.2526 41.812C78.1637 43.4377 78.5989 45.6383 80.2246 46.7272C81.8503 47.8161 84.0509 47.3809 85.1397 45.7552Z" fill="#23284F"/>
<path d="M71.504 61.2916C71.6607 63.3181 75.7669 67.3206 77.6688 66.6447C79.5694 65.9701 80.0284 64.2543 79.6645 62.8506C79.6365 62.7429 79.6141 62.6155 79.5973 62.4714C79.4014 60.7611 79.9766 56.8215 79.9766 56.8215C79.9766 56.8215 79.1187 55.8041 77.9641 54.5459C75.7585 52.1402 72.2506 48.6567 71.807 49.919C71.131 51.842 71.3486 59.2651 71.504 61.2916Z" fill="#C5CBFF"/>
<path d="M73.3744 56.5214C73.3744 56.5214 75.0135 61.4136 79.5973 62.4713C79.4014 60.7611 79.9766 56.8215 79.9766 56.8215C79.9766 56.8215 79.1187 55.8041 77.9641 54.5459L73.3744 56.5214Z" fill="#7983D6"/>
<path d="M71.43 54.364C72.4886 56.4934 78.7498 60.6501 80.6503 60.3017C82.5494 59.9532 84.3954 55.8876 84.6893 54.95C84.9846 54.0137 84.6599 48.3149 84.6893 47.2988C84.6893 47.2876 84.6893 47.275 84.6907 47.2638C84.6963 47.0301 84.6963 46.8034 84.6907 46.5823C84.648 44.6237 84.196 43.1255 83.7406 42.1007C83.2798 41.0637 82.2649 40.3787 81.1307 40.3444C74.6853 40.1498 72.3522 43.027 70.9085 45.755C69.3488 48.7022 71.43 54.364 71.43 54.364Z" fill="#C5CBFF"/>
<path d="M78.6525 51.3897C78.9672 51.3897 79.2222 50.8423 79.2222 50.1671C79.2222 49.4918 78.9672 48.9445 78.6525 48.9445C78.3379 48.9445 78.0828 49.4918 78.0828 50.1671C78.0828 50.8423 78.3379 51.3897 78.6525 51.3897Z" fill="#23284F"/>
<path d="M83.8813 50.1525C83.8813 50.7439 84.1191 51.2234 84.4123 51.2234C84.7056 51.2234 84.9433 50.7439 84.9433 50.1525C84.9433 49.561 84.7056 49.0816 84.4123 49.0816C84.1191 49.0816 83.8813 49.561 83.8813 50.1525ZM77.018 47.7295C76.9677 47.8095 77.052 47.9059 77.138 47.8666C77.4761 47.7121 78.0662 47.4694 78.4594 47.4573C79.0383 47.4395 79.5816 47.5374 79.644 47.4217C79.7063 47.3059 79.4124 46.6913 78.3793 46.7893C77.6718 46.8564 77.2277 47.396 77.018 47.7295ZM83.5738 47.4682C83.6564 47.5661 84.1406 47.3702 84.6906 47.2638C84.6962 47.0301 84.6962 46.8034 84.6906 46.5823C84.6864 46.5823 84.6808 46.5837 84.6766 46.5837C83.6466 46.7054 83.4884 47.3688 83.5738 47.4682Z" fill="#23284F"/>
<path d="M83.2601 54.4214C83.4833 54.4214 83.6787 54.3638 83.8048 54.2112C84.1375 53.8085 83.6435 52.1158 82.9632 49.9447C82.7912 49.3956 82.6426 48.9214 82.5843 48.6706C82.5668 48.5952 82.4914 48.5486 82.4162 48.566C82.3409 48.5835 82.2941 48.6587 82.3116 48.734C82.3724 48.9951 82.5224 49.4739 82.6962 50.0284C83.0711 51.2251 83.8514 53.7153 83.589 54.033C83.3251 54.3522 82.2564 53.9081 81.78 53.6429C81.7126 53.6054 81.6273 53.6295 81.5897 53.6971C81.5521 53.7646 81.5763 53.8498 81.6439 53.8874C81.7697 53.9575 82.6265 54.4213 83.2601 54.4214Z" fill="#7983D6"/>
<path d="M79.9401 56.7818C79.2878 56.6234 78.7986 56.2509 78.4861 55.6747C78.1404 55.0364 78.142 54.3838 78.1422 54.3564C78.1426 54.3127 78.1633 54.2717 78.1983 54.2455C78.2333 54.2194 78.2786 54.2113 78.3205 54.223L81.8485 55.2731C81.8863 55.2843 81.9175 55.3114 81.9346 55.3469C81.9516 55.3825 81.9528 55.424 81.9379 55.4606C81.9379 55.4606 81.9253 55.4918 81.8997 55.5399C81.7997 55.7381 81.5187 56.2331 81.0707 56.5475C80.8115 56.7298 80.5403 56.8214 80.2611 56.8214C80.1552 56.8214 80.0481 56.8082 79.9401 56.7818ZM78.4344 54.5486C78.4581 54.7732 78.5278 55.1641 78.7322 55.5413C79.0054 56.045 79.434 56.3709 80.0063 56.5099C80.3171 56.5857 80.6211 56.5216 80.9098 56.3185C81.2577 56.0743 81.4997 55.6893 81.6076 55.4935L78.4344 54.5486Z" fill="#5F6FEA"/>
<path d="M78.2821 54.3575C78.2821 54.3575 78.2766 54.9942 78.6092 55.608C78.8468 56.0462 79.2604 56.4728 79.9731 56.6458C80.3709 56.7431 80.7137 56.6275 80.9901 56.433C81.4133 56.1361 81.6848 55.655 81.7748 55.4767C81.7976 55.4337 81.8085 55.4072 81.8085 55.4072L78.3052 54.3642L78.2821 54.3575Z" fill="#1E2B91"/>
<path d="M78.3052 54.3641C78.662 54.6631 79.6663 55.4612 80.3948 55.6519C81.0078 55.8116 81.5144 55.6176 81.7748 55.4767C81.7976 55.4337 81.8085 55.4072 81.8085 55.4072L78.3052 54.3641Z" fill="white"/>
<path d="M78.6091 55.608C78.8467 56.0462 79.2604 56.4728 79.9731 56.6459C80.3708 56.7432 80.7137 56.6276 80.9901 56.433C80.7226 56.2038 80.2674 55.8618 79.799 55.7405C79.394 55.6365 78.9365 55.6099 78.6091 55.608Z" fill="#4B59CB"/>
<path d="M85.5324 44.1555C87.6424 42.0456 87.6424 38.6246 85.5324 36.5146C83.4224 34.4046 80.0015 34.4046 77.8915 36.5146C75.7815 38.6246 75.7815 42.0456 77.8915 44.1555C80.0015 46.2655 83.4224 46.2655 85.5324 44.1555Z" fill="#23284F"/>
<path d="M78.3086 44.6177C79.6046 42.6289 79.043 39.9659 77.0542 38.6699C75.0653 37.3738 72.4023 37.9354 71.1063 39.9242C69.8102 41.9131 70.3718 44.5761 72.3607 45.8721C74.3495 47.1682 77.0125 46.6066 78.3086 44.6177Z" fill="#23284F"/>
<path d="M79.853 39.0459C79.9071 36.7299 78.0735 34.8086 75.7575 34.7545C73.4415 34.7004 71.5202 36.534 71.4661 38.85C71.412 41.166 73.2456 43.0873 75.5616 43.1414C77.8776 43.1955 79.7989 41.3619 79.853 39.0459Z" fill="#23284F"/>
<path d="M72.688 42.589C73.1935 41.0079 72.3217 39.3163 70.7406 38.8108C69.1595 38.3052 67.468 39.1771 66.9624 40.7582C66.4568 42.3393 67.3287 44.0308 68.9098 44.5364C70.4909 45.0419 72.1824 44.17 72.688 42.589Z" fill="#23284F"/>
<path d="M69.9705 39.7003C70.3861 40.5253 71.3918 40.8573 72.2168 40.4417C73.0418 40.0262 73.3738 39.0205 72.9582 38.1955C72.5427 37.3704 71.537 37.0385 70.7119 37.4541C69.8869 37.8696 69.555 38.8753 69.9705 39.7003Z" fill="#23284F"/>
<path d="M72.4037 49.2127C73.6104 47.8335 73.1608 45.4662 71.3995 43.9252C69.6382 42.3842 67.2321 42.2531 66.0254 43.6323C64.8187 45.0115 65.2683 47.3789 67.0296 48.9198C68.7909 50.4608 71.197 50.5919 72.4037 49.2127Z" fill="#23284F"/>
<path d="M69.8286 48.3009C68.6532 49.0074 69.2092 51.7593 70.8161 52.5758C71.2799 52.8114 72.4876 50.9711 72.2254 49.9103C71.9632 48.8495 71.2185 47.4654 69.8286 48.3009Z" fill="#C5CBFF"/>
<path d="M72.8994 46.1709C72.8994 46.1709 75.367 49.6516 72.1367 51.1008C72.1367 51.1008 72.3083 49.2907 71.6025 48.5598L72.8994 46.1709Z" fill="#23284F"/>
<path d="M71.6023 50.4823C71.6083 50.4823 71.6142 50.4819 71.6202 50.4812C71.6969 50.4713 71.7511 50.4013 71.7414 50.3246C71.631 49.4599 71.3834 48.8913 71.0057 48.6348C70.73 48.4475 70.4908 48.5012 70.4645 48.508C70.3896 48.5272 70.3445 48.6034 70.3637 48.6783C70.3827 48.7524 70.4572 48.7974 70.532 48.7796C70.5413 48.7777 70.6841 48.7503 70.8579 48.8729C71.0664 49.02 71.3408 49.3975 71.4637 50.36C71.4727 50.4307 71.533 50.4823 71.6023 50.4823Z" fill="#7983D6"/>
<path d="M77.3958 50.3283C77.3958 48.1768 78.572 46.4264 80.0179 46.4264C81.4637 46.4264 82.6399 48.1768 82.6399 50.3283C82.6399 52.4798 81.4637 54.2302 80.0179 54.2302C78.572 54.2302 77.3958 52.4798 77.3958 50.3283ZM77.6757 50.3283C77.6757 52.3254 78.7264 53.9503 80.0179 53.9503C81.3093 53.9503 82.36 52.3254 82.36 50.3283C82.36 48.3311 81.3093 46.7063 80.0179 46.7063C78.7264 46.7063 77.6757 48.3311 77.6757 50.3283ZM83.253 49.5254C83.253 47.6389 84.1901 46.1041 85.342 46.1041C86.4938 46.1041 87.431 47.6389 87.431 49.5254C87.431 51.4119 86.4938 52.9467 85.342 52.9467C84.1901 52.9467 83.253 51.4119 83.253 49.5254ZM83.5329 49.5254C83.5329 51.2576 84.3444 52.6668 85.342 52.6668C86.3396 52.6668 87.1511 51.2576 87.1511 49.5254C87.1511 47.7932 86.3396 46.384 85.342 46.384C84.3444 46.384 83.5329 47.7932 83.5329 49.5254Z" fill="#23284F"/>
<path d="M82.5002 50.2028C82.5216 50.2028 82.5434 50.1979 82.5637 50.1875C82.5725 50.1831 82.9932 49.9761 83.3581 50.1345C83.4292 50.1654 83.5115 50.1328 83.5422 50.0619C83.5731 49.991 83.5406 49.9086 83.4697 49.8778C82.9797 49.6648 82.4581 49.927 82.4362 49.9384C82.3674 49.9736 82.3403 50.058 82.3756 50.1268C82.4003 50.1751 82.4493 50.2028 82.5002 50.2028ZM72.2623 50.4682H77.5358C77.6131 50.4682 77.6757 50.4055 77.6757 50.3282C77.6757 50.2509 77.6131 50.1883 77.5358 50.1883H72.2623C72.185 50.1883 72.1223 50.2509 72.1223 50.3282C72.1223 50.4055 72.185 50.4682 72.2623 50.4682Z" fill="#23284F"/>
<path d="M53.8733 110.601C54.6417 111.533 56.5618 112.277 59.0263 112.838C56.6374 103.611 59.1567 92.9538 60.2624 90.9581C61.5037 88.7175 67.5956 89.4235 70.8508 72.5192L59.3426 70.4159C55.1875 80.6337 51.6509 107.909 53.8733 110.601Z" fill="#0019DF"/>
<path d="M58.264 90.8487C58.264 90.8487 49.3637 116.766 49.8075 117.546C49.9411 117.781 51.3952 123.555 51.4111 123.715C51.427 123.875 51.3643 124.264 50.9914 124.377C50.6185 124.491 50.251 124.247 50.1268 123.869C50.064 123.678 49.3777 121.824 49.3777 121.824C49.1107 121.747 48.8403 123.092 48.8635 124.006C48.8756 124.481 48.8054 126.762 48.7353 128.84C48.7133 129.493 47.7903 129.605 47.6129 128.976L47.3019 123.035L45.576 128.94C45.3953 129.558 44.4933 129.471 44.4345 128.829L45.6855 122.93L43.036 127.654C42.7011 128.251 41.7879 127.949 41.8753 127.27L44.2294 121.883L41.3036 124.903C40.9419 125.276 40.3529 124.801 40.6413 124.369C40.6491 124.357 40.657 124.345 40.6648 124.334C41.8427 122.583 43.3195 120.916 43.3368 120.72C43.3663 120.385 43.7153 118.357 44.9018 116.526C46.7045 113.746 50.0648 96.3777 51.1211 90.7416C51.343 89.5574 51.6958 88.4026 52.1734 87.2965L56.0775 78.2532L64.0146 80.9461L58.264 90.8487Z" fill="#C5CBFF"/>
<path d="M65.9896 62.9363C62.6689 64.508 59.3643 66.9714 57.4416 69.6151C55.519 72.2587 51.9351 81.6602 51.8563 83.3141C51.7775 84.9681 59.5886 88.1763 62.0302 87.5706C64.4717 86.965 70.9345 73.898 71.343 70.6689C71.7514 67.4398 71.6449 64.7779 70.3287 63.8525C69.0125 62.9271 65.9896 62.9363 65.9896 62.9363Z" fill="#5769FA"/>
</svg>
