<svg width="1024" height="1024" viewBox="0 0 1024 1024" fill="none" xmlns="http://www.w3.org/2000/svg">
<path d="M996.267 345.362L733.867 800.182L456.533 320.056C452.331 312.771 449.605 304.729 448.51 296.39C447.415 288.051 447.973 279.577 450.152 271.454C452.331 263.33 456.088 255.716 461.21 249.045C466.331 242.374 472.716 236.777 480 232.574C487.284 228.371 495.324 225.644 503.662 224.549C512 223.454 520.471 224.012 528.593 226.191C536.715 228.371 544.329 232.129 550.999 237.251C557.668 242.373 563.264 248.759 567.467 256.045L733.867 544.137L904.32 248.833C910.963 237.314 913.855 224.012 912.593 210.774C911.332 197.536 905.98 185.02 897.28 174.964C849.247 120.009 790.018 75.9661 723.567 45.7892C657.116 15.6123 584.98 0 512 0C439.02 0 366.884 15.6123 300.433 45.7892C233.982 75.9661 174.753 120.009 126.72 174.964C118.047 185.039 112.726 197.564 111.495 210.802C110.264 224.039 113.184 237.331 119.851 248.833L290.517 544.137L345.6 448.078C349.802 440.793 355.398 434.407 362.068 429.284C368.738 424.162 376.351 420.404 384.473 418.225C392.595 416.045 401.067 415.487 409.405 416.582C417.742 417.677 425.783 420.404 433.067 424.607C440.351 428.81 446.736 434.407 451.857 441.078C456.978 447.749 460.736 455.364 462.915 463.487C465.094 471.611 465.652 480.084 464.557 488.423C463.462 496.762 460.736 504.804 456.533 512.089L290.133 800.096L27.7334 345.66C1.27026 422.771 -6.40293 505.086 5.35205 585.76C17.107 666.434 47.9504 743.136 95.3169 809.484C142.683 875.833 205.204 929.912 277.679 967.224C350.154 1004.53 430.488 1024 512 1024C593.512 1024 673.846 1004.53 746.321 967.224C818.796 929.912 881.317 875.833 928.683 809.484C976.05 743.136 1006.89 666.434 1018.65 585.76C1030.4 505.086 1022.73 422.771 996.267 345.66V345.362Z" fill="url(#paint0_linear_14203_328)"/>
<defs>
<linearGradient id="paint0_linear_14203_328" x1="259.755" y1="957.82" x2="771.931" y2="70.8309" gradientUnits="userSpaceOnUse">
<stop stop-color="#0071FD"/>
<stop offset="1" stop-color="#00E1FD"/>
</linearGradient>
</defs>
</svg>
