<svg width="104" height="25" viewBox="0 0 104 25" fill="none" xmlns="http://www.w3.org/2000/svg">
<g clip-path="url(#clip0_9715_13265)">
<path d="M44.6924 7.15915L41.4483 17.3515H39.2579L37.1089 10.4814L34.9351 17.3515H32.7489L29.5016 7.15915H31.8566L33.8648 14.1957L36.0386 7.16323H38.1668L40.3117 14.1957L42.3375 7.15915H44.6924Z" fill="#1A1A1A"/>
<path d="M44.9409 12.2553C44.9409 9.21804 47.3797 6.89362 50.3961 6.89362C53.4342 6.89362 55.8513 9.21804 55.8513 12.2553C55.8513 15.2722 53.4342 17.617 50.3961 17.617C49.6861 17.6233 48.9817 17.4916 48.3233 17.2294C47.6649 16.9672 47.0653 16.5795 46.5587 16.0887C46.0522 15.5978 45.6486 15.0133 45.371 14.3685C45.0934 13.7238 44.9472 13.0314 44.9409 12.3309V12.2553ZM53.6206 12.2553C53.6206 10.3997 52.2159 9.03421 50.3971 9.03421C48.5784 9.03421 47.1726 10.3997 47.1726 12.2553C47.1726 14.111 48.5784 15.4764 50.3961 15.4764C52.2138 15.4764 53.6206 14.1099 53.6206 12.2553Z" fill="#1A1A1A"/>
<path d="M62.8779 6.97531V9.35999C61.41 9.25786 59.6958 9.93088 59.6958 12.2144V17.3515H57.4641V7.15914H59.6958V8.8708C60.3148 7.48493 61.5757 6.97531 62.8779 6.97531Z" fill="#1A1A1A"/>
<path d="M64.1179 2.46945H66.3528V17.3515H64.1179V2.46945Z" fill="#1A1A1A"/>
<path d="M78.9329 3.08121V17.3515H76.7043V15.8839C75.9196 16.9644 74.7002 17.6201 73.0885 17.6201C70.2781 17.6201 67.9438 15.2711 67.9438 12.2584C67.9438 9.2211 70.2781 6.89668 73.0885 6.89668C74.7002 6.89668 75.9196 7.54928 76.7043 8.60936V3.08121H78.9329ZM76.7043 12.2553C76.7043 10.3598 75.2996 8.99336 73.4394 8.99336C71.5793 8.99336 70.1715 10.3598 70.1715 12.2553C70.1715 14.1508 71.5772 15.5173 73.4363 15.5173C75.2954 15.5173 76.7043 14.1508 76.7043 12.2553Z" fill="#1A1A1A"/>
<path d="M86.5382 6.97531V9.35999C85.0714 9.25786 83.3562 9.93088 83.3562 12.2144V17.3515H81.1244V7.15914H83.3562V8.8708C83.9752 7.48493 85.236 6.97531 86.5382 6.97531Z" fill="#1A1A1A"/>
<path d="M92.366 15.599C93.6082 15.599 94.5398 15.0485 95.0305 14.3346L96.8699 15.3947C95.9197 16.7816 94.3701 17.617 92.3443 17.617C88.9356 17.617 86.7245 15.313 86.7245 12.2553C86.7245 9.23846 88.9356 6.89362 92.1797 6.89362C95.2582 6.89362 97.3658 9.34467 97.3658 12.2757C97.3599 12.5836 97.3323 12.8908 97.283 13.1949H89.0598C89.4107 14.783 90.7119 15.599 92.366 15.599ZM95.1133 11.3985C94.8028 9.64595 93.5016 8.89123 92.159 8.89123C90.4852 8.89123 89.3486 9.86961 89.0391 11.3985H95.1133Z" fill="#1A1A1A"/>
<path d="M101.561 6.95489V7.15915H104V9.27931H101.561V17.3474H99.3295V9.27931H97.7592V7.15915H99.3295V6.95489C99.3295 4.20256 100.9 2.61243 104 2.81669V4.93685C102.43 4.79388 101.561 5.38519 101.561 6.95489Z" fill="#1A1A1A"/>
<path d="M24.1748 8.26518L17.8056 19.1499L11.0772 7.65956C10.9752 7.48521 10.9091 7.29276 10.8825 7.09318C10.8559 6.89361 10.8695 6.69083 10.9223 6.49642C10.9752 6.30201 11.0664 6.11978 11.1906 5.96013C11.3149 5.80048 11.4698 5.66654 11.6465 5.56595C11.8232 5.46536 12.0183 5.4001 12.2206 5.37389C12.4228 5.34768 12.6284 5.36104 12.8254 5.4132C13.0225 5.46536 13.2072 5.5553 13.369 5.67788C13.5308 5.80047 13.6666 5.9533 13.7685 6.12765L17.8056 13.0223L21.9462 5.95505C22.1071 5.67918 22.1769 5.36072 22.1459 5.0439C22.1149 4.72709 21.9847 4.42767 21.7733 4.18723C20.7002 2.97617 19.3959 1.98549 17.9347 1.27176C16.4736 0.558033 14.8842 0.135234 13.2575 0.0275026C11.6307 -0.0802288 9.99834 0.129217 8.45361 0.643883C6.90888 1.15855 5.48203 1.96835 4.25452 3.02706C3.83709 3.38783 3.44426 3.7754 3.07859 4.18723C2.86818 4.42834 2.73908 4.7281 2.70921 5.04489C2.67935 5.36169 2.7502 5.6798 2.91194 5.95505L7.05252 13.0223L8.38578 10.7234C8.48773 10.549 8.6235 10.3962 8.78532 10.2736C8.94713 10.151 9.13184 10.0611 9.32889 10.0089C9.52594 9.95677 9.73148 9.94342 9.93376 9.96963C10.136 9.99583 10.3311 10.0611 10.5078 10.1617C10.6845 10.2623 10.8395 10.3962 10.9637 10.5559C11.088 10.7155 11.1791 10.8977 11.232 11.0922C11.2849 11.2866 11.2984 11.4893 11.2718 11.6889C11.2453 11.8885 11.1791 12.0809 11.0772 12.2553L7.04009 19.1479L0.677058 8.27233C0.0350294 10.1177 -0.151131 12.0877 0.134059 14.0184C0.419249 15.9491 1.16755 17.7847 2.31672 19.3725C3.46588 20.9604 4.98271 22.2546 6.74103 23.1476C8.49936 24.0405 10.4484 24.5063 12.426 24.5063C14.4035 24.5063 16.3525 24.0405 18.1109 23.1476C19.8692 22.2546 21.386 20.9604 22.5352 19.3725C23.6844 17.7847 24.4327 15.9491 24.7178 14.0184C25.003 12.0877 24.8169 10.1177 24.1748 8.27233V8.26518Z" fill="url(#paint0_linear_9715_13265)"/>
</g>
<defs>
<linearGradient id="paint0_linear_9715_13265" x1="6.30721" y1="22.9194" x2="18.4803" y2="1.54901" gradientUnits="userSpaceOnUse">
<stop stop-color="#0071FD"/>
<stop offset="1" stop-color="#00E1FD"/>
</linearGradient>
<clipPath id="clip0_9715_13265">
<rect width="104" height="24.5096" fill="white"/>
</clipPath>
</defs>
</svg>
