<svg width="186" height="47" viewBox="0 0 186 47" fill="none" xmlns="http://www.w3.org/2000/svg">
<g clip-path="url(#clip0_9715_1367)">
<path d="M71.5389 41.8065C71.5389 43.6375 70.2559 45.0769 68.2064 45.0769C66.107 45.0769 64.6185 43.4005 64.6185 41.3443C64.6121 40.8488 64.7003 40.357 64.8778 39.8984C65.0554 39.4398 65.3186 39.0238 65.6516 38.6753C65.9847 38.3268 66.3809 38.053 66.8163 37.8702C67.2518 37.6875 67.7177 37.5995 68.186 37.6117C68.7778 37.6048 69.3609 37.7614 69.8779 38.0661C70.3948 38.3708 70.8276 38.8129 71.1334 39.3487L70.3522 39.8325C70.1337 39.4286 69.8159 39.0948 69.4326 38.8666C69.0493 38.6383 68.6147 38.5241 68.1749 38.536C67.8232 38.5256 67.4731 38.591 67.146 38.7282C66.8189 38.8655 66.5216 39.0718 66.2724 39.3346C66.0231 39.5974 65.827 39.911 65.6961 40.2566C65.5652 40.6021 65.5021 40.9722 65.5108 41.3443C65.5108 42.911 66.5902 44.1408 68.2138 44.1408C69.6246 44.1408 70.4595 43.3183 70.6354 42.2393H68.1305V41.3737H71.5333L71.5389 41.8065Z" fill="#191C1F"/>
<path d="M72.5479 37.4355H73.394V44.9437H72.5479V37.4355Z" fill="#191C1F"/>
<path d="M74.4141 42.3725C74.413 41.8359 74.5625 41.3111 74.8436 40.8645C75.1247 40.4179 75.5249 40.0696 75.9933 39.8637C76.4617 39.6578 76.9774 39.6037 77.4749 39.708C77.9725 39.8124 78.4295 40.0707 78.7882 40.4501C79.1469 40.8295 79.391 41.313 79.4897 41.8393C79.5884 42.3656 79.5372 42.911 79.3426 43.4065C79.148 43.902 78.8187 44.3252 78.3965 44.6226C77.9742 44.92 77.4781 45.0781 76.9708 45.0769C76.6343 45.08 76.3005 45.0122 75.9889 44.8774C75.6774 44.7426 75.3944 44.5435 75.1563 44.2918C74.9183 44.04 74.7301 43.7406 74.6027 43.4111C74.4752 43.0816 74.4111 42.7285 74.4141 42.3725ZM78.6908 42.3725C78.6878 42.0143 78.5848 41.665 78.3946 41.3686C78.2044 41.0722 77.9356 40.842 77.622 40.7068C77.3083 40.5717 76.9639 40.5378 76.6321 40.6093C76.3003 40.6808 75.9958 40.8545 75.7572 41.1086C75.5185 41.3627 75.3562 41.6858 75.2907 42.0373C75.2253 42.3887 75.2596 42.7528 75.3894 43.0837C75.5191 43.4146 75.7385 43.6974 76.0199 43.8967C76.3013 44.096 76.6322 44.2027 76.9708 44.2035C77.1979 44.2059 77.4232 44.16 77.6332 44.0686C77.8432 43.9772 78.0337 43.8421 78.1935 43.6713C78.3532 43.5006 78.4788 43.2976 78.563 43.0745C78.6472 42.8514 78.6881 42.6126 78.6834 42.3725H78.6908Z" fill="#191C1F"/>
<path d="M85.6797 42.3725C85.6878 42.7213 85.6304 43.0683 85.511 43.3935C85.3915 43.7187 85.2123 44.0157 84.9836 44.2671C84.755 44.5186 84.4815 44.7197 84.179 44.8587C83.8764 44.9977 83.5509 45.0719 83.221 45.0769C82.8575 45.09 82.4969 45.0031 82.1747 44.8246C81.8524 44.6461 81.5795 44.3821 81.3826 44.0586V44.9438H80.5347V37.7449H81.3808V40.6824C81.5777 40.3589 81.8506 40.095 82.1729 39.9165C82.4951 39.738 82.8556 39.651 83.2192 39.6641C83.5495 39.6689 83.8756 39.743 84.1786 39.8821C84.4816 40.0213 84.7555 40.2226 84.9843 40.4746C85.2132 40.7265 85.3925 41.024 85.5119 41.3498C85.6313 41.6756 85.6883 42.0232 85.6797 42.3725ZM84.8336 42.3725C84.8307 42.0119 84.7268 41.6604 84.5352 41.3622C84.3436 41.064 84.0728 40.8325 83.7569 40.6969C83.4411 40.5613 83.0943 40.5278 82.7605 40.6004C82.4266 40.6731 82.1205 40.8487 81.8809 41.1052C81.6413 41.3616 81.4789 41.6874 81.4141 42.0414C81.3494 42.3954 81.3852 42.7618 81.517 43.0942C81.6489 43.4267 81.8709 43.7105 82.1551 43.9096C82.4392 44.1088 82.7728 44.2144 83.1137 44.2133C83.3421 44.2165 83.5688 44.171 83.7802 44.0793C83.9916 43.9877 84.1833 43.8519 84.3439 43.68C84.5045 43.5081 84.6307 43.3037 84.7148 43.079C84.7989 42.8544 84.8393 42.614 84.8336 42.3725Z" fill="#191C1F"/>
<path d="M91.5596 39.8011V44.9437H90.7173V44.0625C90.5202 44.3859 90.2473 44.6497 89.9251 44.8282C89.6029 45.0067 89.2424 45.0937 88.8789 45.0808C88.2176 45.0542 87.5918 44.7576 87.1329 44.2533C86.674 43.749 86.4176 43.0763 86.4176 42.3763C86.4176 41.6764 86.674 41.0036 87.1329 40.4994C87.5918 39.9951 88.2176 39.6985 88.8789 39.6719C89.2424 39.659 89.6029 39.746 89.9251 39.9245C90.2473 40.103 90.5202 40.3668 90.7173 40.6902V39.805L91.5596 39.8011ZM90.7173 42.3724C90.7147 42.0118 90.6113 41.6601 90.4201 41.3615C90.229 41.0629 89.9585 40.8309 89.6429 40.6946C89.3273 40.5582 88.9805 40.5238 88.6464 40.5955C88.3123 40.6672 88.0058 40.8419 87.7653 41.0976C87.5249 41.3533 87.3614 41.6785 87.2954 42.0323C87.2293 42.3861 87.2638 42.7526 87.3943 43.0858C87.5249 43.4189 87.7457 43.7037 88.029 43.9044C88.3122 44.105 88.6453 44.2125 88.9862 44.2133C89.2155 44.2175 89.4431 44.1728 89.6556 44.0817C89.8681 43.9905 90.0609 43.8549 90.2226 43.683C90.3843 43.5111 90.5114 43.3064 90.5964 43.0811C90.6814 42.8559 90.7225 42.6149 90.7173 42.3724Z" fill="#191C1F"/>
<path d="M92.8426 37.4355H93.6795V44.9437H92.8352L92.8426 37.4355Z" fill="#191C1F"/>
<path d="M94.8347 38.2698C94.8347 38.1104 94.8946 37.9574 95.0012 37.8447C95.1078 37.7319 95.2523 37.6686 95.4031 37.6686C95.5538 37.6686 95.6984 37.7319 95.805 37.8447C95.9116 37.9574 95.9715 38.1104 95.9715 38.2698C95.9715 38.4293 95.9116 38.5822 95.805 38.6949C95.6984 38.8077 95.5538 38.871 95.4031 38.871C95.2523 38.871 95.1078 38.8077 95.0012 38.6949C94.8946 38.5822 94.8347 38.4293 94.8347 38.2698ZM94.981 39.8012H95.8252V44.9438H94.9754L94.981 39.8012Z" fill="#191C1F"/>
<path d="M100.561 43.5337C100.561 44.4913 99.7834 45.0769 98.743 45.0769C97.7691 45.0769 97.0897 44.5834 96.8083 43.8744L97.5377 43.4319C97.6932 43.9254 98.1394 44.2328 98.743 44.2328C99.2576 44.2328 99.7057 44.037 99.7057 43.5337C99.7057 42.4331 96.9823 43.0617 96.9823 41.1994C96.9823 40.2946 97.7229 39.6679 98.7041 39.6679C99.5002 39.6679 100.143 40.0694 100.454 40.7372L99.7446 41.1582C99.654 40.9505 99.5062 40.7765 99.3205 40.6591C99.1348 40.5417 98.92 40.4863 98.7041 40.5002C98.2653 40.5002 97.8377 40.7274 97.8377 41.1896C97.8377 42.2999 100.561 41.6419 100.561 43.5337Z" fill="#191C1F"/>
<path d="M106.295 39.8011V44.9437H105.449V44.0624C105.252 44.3858 104.979 44.6497 104.658 44.8282C104.336 45.0067 103.975 45.0937 103.612 45.0808C102.951 45.0541 102.325 44.7576 101.866 44.2533C101.407 43.749 101.151 43.0763 101.151 42.3763C101.151 41.6763 101.407 41.0036 101.866 40.4993C102.325 39.9951 102.951 39.6985 103.612 39.6719C103.975 39.6589 104.336 39.7459 104.658 39.9244C104.979 40.1029 105.252 40.3668 105.449 40.6902V39.805L106.295 39.8011ZM105.449 42.3724C105.446 42.0123 105.342 41.6611 105.151 41.3631C104.96 41.0651 104.689 40.8336 104.374 40.6977C104.059 40.5619 103.713 40.5277 103.379 40.5996C103.045 40.6715 102.739 40.8461 102.499 41.1016C102.259 41.3571 102.096 41.682 102.03 42.0353C101.964 42.3887 101.999 42.7547 102.129 43.0874C102.26 43.42 102.48 43.7044 102.763 43.9048C103.046 44.1051 103.379 44.2124 103.719 44.2132C103.949 44.2175 104.176 44.1728 104.389 44.0816C104.601 43.9905 104.794 43.8548 104.955 43.6829C105.117 43.5109 105.244 43.3062 105.329 43.081C105.413 42.8558 105.454 42.6147 105.449 42.3724Z" fill="#191C1F"/>
<path d="M108.927 40.6649V43.4516C108.927 44.235 109.357 44.1821 110.223 44.141V44.9439C108.764 45.1495 108.085 44.7383 108.085 43.4516V40.6649H107.122V39.8013H108.085V38.6263L108.929 38.36V39.7994H110.225V40.663L108.927 40.6649Z" fill="#191C1F"/>
<path d="M111.082 38.2698C111.082 38.1104 111.142 37.9574 111.249 37.8447C111.355 37.7319 111.5 37.6686 111.651 37.6686C111.801 37.6686 111.946 37.7319 112.053 37.8447C112.159 37.9574 112.219 38.1104 112.219 38.2698C112.219 38.4293 112.159 38.5822 112.053 38.6949C111.946 38.8077 111.801 38.871 111.651 38.871C111.5 38.871 111.355 38.8077 111.249 38.6949C111.142 38.5822 111.082 38.4293 111.082 38.2698ZM111.227 39.8012H112.073V44.9438H111.227V39.8012Z" fill="#191C1F"/>
<path d="M113.087 42.3725C113.086 41.8359 113.236 41.3111 113.517 40.8645C113.798 40.4179 114.198 40.0696 114.667 39.8637C115.135 39.6578 115.651 39.6037 116.148 39.708C116.646 39.8124 117.103 40.0707 117.462 40.4501C117.82 40.8295 118.064 41.313 118.163 41.8393C118.262 42.3656 118.211 42.911 118.016 43.4065C117.821 43.902 117.492 44.3252 117.07 44.6226C116.648 44.92 116.151 45.0781 115.644 45.0769C115.308 45.0798 114.974 45.0118 114.663 44.8769C114.351 44.742 114.068 44.5429 113.83 44.2912C113.592 44.0395 113.404 43.7402 113.277 43.4108C113.149 43.0814 113.085 42.7284 113.087 42.3725ZM117.366 42.3725C117.363 42.0143 117.26 41.6651 117.07 41.3688C116.88 41.0725 116.611 40.8422 116.298 40.707C115.984 40.5719 115.64 40.5378 115.308 40.6091C114.976 40.6805 114.672 40.854 114.433 41.1079C114.194 41.3618 114.032 41.6848 113.966 42.0361C113.9 42.3874 113.935 42.7514 114.064 43.0824C114.193 43.4133 114.413 43.6963 114.694 43.8958C114.975 44.0953 115.306 44.2023 115.644 44.2035C115.872 44.2072 116.098 44.1624 116.309 44.0715C116.52 43.9807 116.712 43.8458 116.873 43.6749C117.034 43.504 117.16 43.3006 117.245 43.0768C117.329 42.853 117.371 42.6135 117.366 42.3725Z" fill="#191C1F"/>
<path d="M123.518 41.7869V44.9437H122.672V41.8378C122.672 40.9937 122.215 40.5218 121.467 40.5218C120.689 40.5218 120.058 41.0055 120.058 42.2177V44.9437H119.212V39.8011H120.058V40.5374C120.221 40.2545 120.453 40.0238 120.73 39.87C121.007 39.7161 121.319 39.6449 121.631 39.664C122.77 39.6679 123.518 40.4709 123.518 41.7869Z" fill="#191C1F"/>
<path d="M125.325 46.3831H124.597L124.986 43.8843H125.958L125.325 46.3831Z" fill="#191C1F"/>
<path d="M129.291 43.3084L130.068 42.8345C130.311 43.6277 130.894 44.1407 131.886 44.1407C132.849 44.1407 133.325 43.6786 133.325 43.0304C133.325 42.2901 132.723 42.0512 131.721 41.7144C130.633 41.3442 129.581 40.9839 129.581 39.6464C129.581 38.3519 130.583 37.6117 131.721 37.6117C132.209 37.5994 132.69 37.7421 133.1 38.0214C133.511 38.3007 133.833 38.7036 134.025 39.1783L133.267 39.6405C133.154 39.306 132.943 39.0182 132.666 38.8187C132.388 38.6191 132.057 38.518 131.721 38.5301C130.992 38.5301 130.487 38.9414 130.487 39.5994C130.487 40.2574 130.962 40.5159 131.916 40.8331C133.101 41.2444 134.219 41.6165 134.219 43.0049C134.219 44.27 133.256 45.071 131.866 45.071C130.574 45.0768 129.65 44.3875 129.291 43.3084Z" fill="#191C1F"/>
<path d="M135.054 38.2698C135.054 38.1104 135.114 37.9574 135.22 37.8447C135.327 37.7319 135.472 37.6686 135.622 37.6686C135.773 37.6686 135.918 37.7319 136.024 37.8447C136.131 37.9574 136.191 38.1104 136.191 38.2698C136.191 38.4293 136.131 38.5822 136.024 38.6949C135.918 38.8077 135.773 38.871 135.622 38.871C135.472 38.871 135.327 38.8077 135.22 38.6949C135.114 38.5822 135.054 38.4293 135.054 38.2698ZM135.2 39.8012H136.046V44.9438H135.2V39.8012Z" fill="#191C1F"/>
<path d="M144.416 41.7459V44.9439H143.57V41.7753C143.57 40.9626 143.143 40.5219 142.502 40.5219C141.821 40.5219 141.306 40.9743 141.306 42.0886V44.9478H140.46V41.7753C140.46 40.9626 140.06 40.5219 139.429 40.5219C138.797 40.5219 138.185 40.9743 138.185 42.0886V44.9478H137.339V39.8013H138.185V40.4906C138.335 40.2298 138.549 40.0161 138.803 39.8716C139.057 39.727 139.344 39.6568 139.632 39.6681C139.925 39.6541 140.215 39.7289 140.468 39.8836C140.721 40.0384 140.927 40.2667 141.062 40.5415C141.22 40.2659 141.445 40.0397 141.714 39.8863C141.982 39.7328 142.284 39.6575 142.589 39.6681C143.667 39.6681 144.416 40.4593 144.416 41.7459Z" fill="#191C1F"/>
<path d="M150.733 42.3726C150.741 42.7214 150.683 43.0685 150.564 43.3937C150.444 43.719 150.265 44.0159 150.036 44.2674C149.807 44.5188 149.534 44.7198 149.231 44.8588C148.928 44.9978 148.603 45.0719 148.273 45.077C147.911 45.089 147.553 45.0019 147.232 44.8242C146.912 44.6464 146.64 44.3841 146.444 44.0626V47.0001H145.597V39.8013H146.444V40.6864C146.64 40.363 146.913 40.0992 147.235 39.9207C147.557 39.7422 147.917 39.6552 148.28 39.6681C148.609 39.6742 148.934 39.7491 149.236 39.8885C149.538 40.028 149.811 40.2291 150.039 40.4805C150.267 40.7319 150.445 41.0284 150.565 41.3532C150.684 41.6779 150.741 42.0243 150.733 42.3726ZM149.887 42.3726C149.884 42.012 149.78 41.6604 149.589 41.3622C149.397 41.064 149.126 40.8326 148.81 40.697C148.495 40.5614 148.148 40.5279 147.814 40.6005C147.48 40.6732 147.174 40.8488 146.934 41.1053C146.695 41.3617 146.532 41.6875 146.468 42.0415C146.403 42.3955 146.439 42.7618 146.571 43.0943C146.702 43.4268 146.924 43.7105 147.209 43.9097C147.493 44.1089 147.826 44.2145 148.167 44.2134C148.396 44.2166 148.622 44.1711 148.834 44.0794C149.045 43.9878 149.237 43.852 149.397 43.6801C149.558 43.5082 149.684 43.3038 149.768 43.0791C149.852 42.8545 149.893 42.6141 149.887 42.3726Z" fill="#191C1F"/>
<path d="M151.742 37.4355H152.588V44.9437H151.742V37.4355Z" fill="#191C1F"/>
<path d="M153.734 38.2698C153.73 38.1878 153.741 38.1058 153.768 38.0286C153.795 37.9515 153.836 37.8809 153.889 37.8213C153.942 37.7616 154.007 37.714 154.078 37.6815C154.149 37.649 154.226 37.6323 154.304 37.6323C154.381 37.6323 154.458 37.649 154.529 37.6815C154.601 37.714 154.665 37.7616 154.718 37.8213C154.771 37.8809 154.813 37.9515 154.839 38.0286C154.866 38.1058 154.877 38.1878 154.873 38.2698C154.865 38.4236 154.801 38.5681 154.695 38.6739C154.589 38.7797 154.449 38.8386 154.304 38.8386C154.158 38.8386 154.018 38.7797 153.912 38.6739C153.806 38.5681 153.743 38.4236 153.734 38.2698ZM153.881 39.8012H154.727V44.9438H153.881V39.8012Z" fill="#191C1F"/>
<path d="M159.879 44.9437H159.033V40.6648H157.235V44.9437H156.389V40.6648H155.612V39.8011H156.389V39.6464C156.389 38.2756 157.13 37.6117 158.518 37.6117C158.856 37.6193 159.191 37.6639 159.52 37.7449V38.5576C159.188 38.5063 158.853 38.4788 158.518 38.4754C157.672 38.4754 157.235 38.7534 157.235 39.6504V39.8051H159.879V44.9437Z" fill="#191C1F"/>
<path d="M163.524 44.2328C163.799 44.2465 164.072 44.1845 164.318 44.0531C164.563 43.9216 164.772 43.7251 164.924 43.4828L165.642 43.9156C165.41 44.2869 165.091 44.5889 164.717 44.7922C164.342 44.9956 163.925 45.0936 163.504 45.0769C161.94 45.0769 160.899 43.9156 160.899 42.3724C160.899 40.8292 161.928 39.6679 163.447 39.6679C164.913 39.6679 165.866 40.9428 165.866 42.3822C165.867 42.5166 165.857 42.6509 165.837 42.7836H161.764C161.928 43.7099 162.619 44.2328 163.524 44.2328ZM161.764 42.0023H165.011C164.865 40.9839 164.174 40.51 163.447 40.51C163.04 40.4884 162.64 40.6301 162.328 40.9069C162.016 41.1836 161.815 41.5749 161.764 42.0023Z" fill="#191C1F"/>
<path d="M171.698 37.7449V44.9438H170.852V44.0625C170.655 44.3859 170.383 44.6498 170.061 44.8283C169.739 45.0068 169.379 45.0938 169.015 45.0809C168.354 45.0542 167.728 44.7576 167.27 44.2534C166.811 43.7491 166.554 43.0764 166.554 42.3764C166.554 41.6764 166.811 41.0037 167.27 40.4994C167.728 39.9951 168.354 39.6986 169.015 39.6719C169.379 39.659 169.739 39.746 170.061 39.9245C170.383 40.103 170.655 40.3669 170.852 40.6903V37.7528L171.698 37.7449ZM170.852 42.3725C170.849 42.0124 170.746 41.6613 170.554 41.3634C170.363 41.0654 170.093 40.8339 169.778 40.698C169.463 40.5621 169.117 40.5278 168.783 40.5995C168.449 40.6713 168.143 40.8457 167.903 41.101C167.663 41.3563 167.5 41.681 167.434 42.0342C167.368 42.3874 167.402 42.7534 167.532 43.0861C167.662 43.4188 167.883 43.7033 168.165 43.9039C168.448 44.1045 168.781 44.2121 169.121 44.2133C169.35 44.2179 169.578 44.1733 169.791 44.0823C170.003 43.9913 170.196 43.8557 170.358 43.6837C170.52 43.5117 170.647 43.3069 170.732 43.0815C170.817 42.8562 170.858 42.615 170.852 42.3725Z" fill="#191C1F"/>
<path d="M172.883 44.3875C172.883 44.2549 172.92 44.1251 172.989 44.0147C173.058 43.9043 173.157 43.8181 173.273 43.7672C173.389 43.7162 173.516 43.7028 173.639 43.7286C173.762 43.7544 173.875 43.8182 173.964 43.912C174.053 44.0058 174.113 44.1253 174.137 44.2554C174.162 44.3855 174.149 44.5203 174.101 44.6428C174.053 44.7652 173.971 44.8698 173.867 44.9433C173.762 45.0167 173.64 45.0557 173.514 45.0553C173.431 45.0556 173.349 45.0385 173.272 45.005C173.196 44.9715 173.126 44.9224 173.067 44.8603C173.009 44.7982 172.962 44.7245 172.931 44.6434C172.899 44.5622 172.883 44.4753 172.883 44.3875Z" fill="#191C1F"/>
<path d="M79.9275 11.5071L74.1252 31.0532H70.2077L66.3643 17.8795L62.4764 31.0532H58.5663L52.7641 11.5071H56.976L60.5621 24.9941L64.45 11.5071H68.2564L72.0998 24.9941L75.7211 11.5071H79.9275Z" fill="#191C1F"/>
<path d="M80.3718 21.2792C80.3718 15.4551 84.7336 10.998 90.1285 10.998C95.5623 10.998 99.8853 15.4551 99.8853 21.2792C99.8853 27.0661 95.5623 31.5604 90.1285 31.5604C88.8472 31.5727 87.5763 31.3154 86.3898 30.8035C85.2032 30.2916 84.1247 29.5354 83.2169 28.5788C82.3091 27.6222 81.59 26.4842 81.1016 25.2311C80.6132 23.9779 80.3651 22.6346 80.3718 21.2792ZM95.8937 21.2792C95.8937 17.7229 93.3814 15.1026 90.1285 15.1026C86.8757 15.1026 84.3634 17.7229 84.3634 21.2792C84.3634 24.8355 86.8775 27.4558 90.1285 27.4558C93.3796 27.4558 95.9011 24.8375 95.9011 21.2792H95.8937Z" fill="#191C1F"/>
<path d="M112.452 11.1624V15.7292C109.827 15.5334 106.761 16.824 106.761 21.2008V31.0532H102.77V11.5071H106.761V14.7912C107.868 12.1416 110.123 11.1624 112.452 11.1624Z" fill="#191C1F"/>
<path d="M114.67 2.51642H118.662V31.0533H114.67V2.51642Z" fill="#191C1F"/>
<path d="M141.167 3.68756V31.0533H137.176V28.2372C135.772 30.3111 133.591 31.5664 130.709 31.5664C125.682 31.5664 121.507 27.072 121.507 21.2851C121.507 15.4611 125.682 11.0039 130.709 11.0039C133.591 11.0039 135.772 12.2553 137.176 14.288V3.68756H141.167ZM137.176 21.2793C137.176 17.6446 134.663 15.0244 131.336 15.0244C128.009 15.0244 125.497 17.6446 125.497 21.2793C125.497 24.9139 128.011 27.5342 131.336 27.5342C134.661 27.5342 137.176 24.9159 137.176 21.2793Z" fill="#191C1F"/>
<path d="M154.775 11.1624V15.7292C152.151 15.5334 149.084 16.824 149.084 21.2008V31.0532H145.087V11.5071H149.078V14.7912C150.185 12.1416 152.44 11.1624 154.775 11.1624Z" fill="#191C1F"/>
<path d="M165.192 27.6908C167.414 27.6908 169.08 26.6352 169.958 25.2664L173.248 27.2991C171.548 29.9585 168.777 31.5605 165.154 31.5605C159.057 31.5605 155.102 27.1425 155.102 21.2792C155.102 15.4943 159.057 10.998 164.859 10.998C170.365 10.998 174.135 15.698 174.135 21.3184C174.124 21.9088 174.074 22.4977 173.986 23.0809H159.279C159.907 26.128 162.234 27.6908 165.192 27.6908ZM170.106 19.6381C169.551 16.2757 167.223 14.8304 164.822 14.8304C161.828 14.8304 159.796 16.7065 159.242 19.6381H170.106Z" fill="#191C1F"/>
<path d="M181.638 11.1156V11.5072H186V15.5727H181.638V31.0534H177.647V15.5825H174.838V11.5072H177.647V11.1156C177.647 5.83786 180.455 2.79069 186 3.1804V7.2459C183.191 6.97173 181.638 8.10561 181.638 11.1156Z" fill="#191C1F"/>
<path d="M43.2295 15.8487L31.8436 36.7207L19.8097 14.6875C19.6273 14.3531 19.509 13.9841 19.4615 13.6014C19.414 13.2187 19.4382 12.8299 19.5328 12.4571C19.6273 12.0843 19.7903 11.7349 20.0126 11.4287C20.2348 11.1226 20.5119 10.8657 20.8279 10.6729C21.144 10.48 21.4929 10.3548 21.8546 10.3046C22.2164 10.2543 22.584 10.2799 22.9365 10.38C23.2889 10.48 23.6192 10.6524 23.9087 10.8875C24.1981 11.1226 24.4409 11.4156 24.6232 11.75L31.8436 24.9707L39.2398 11.419C39.5281 10.8904 39.6536 10.2799 39.5988 9.67246C39.5441 9.06497 39.3118 8.49059 38.9343 8.02912C36.8501 5.50723 34.2801 3.48606 31.3967 2.10123C28.5133 0.716394 25.3832 -6.10352e-05 22.2164 -6.10352e-05C19.0497 -6.10352e-05 15.9196 0.716394 13.0362 2.10123C10.1528 3.48606 7.58276 5.50723 5.49855 8.02912C5.12222 8.49145 4.89132 9.06626 4.83791 9.67372C4.78449 10.2812 4.91122 10.8912 5.20048 11.419L12.606 24.9707L14.9961 20.5625C15.1784 20.2281 15.4212 19.9351 15.7107 19.7C16.0001 19.4649 16.3304 19.2925 16.6829 19.1925C17.0353 19.0924 17.4029 19.0668 17.7647 19.1171C18.1265 19.1674 18.4753 19.2925 18.7914 19.4854C19.1075 19.6782 19.3845 19.9351 19.6067 20.2412C19.829 20.5474 19.992 20.8968 20.0866 21.2696C20.1811 21.6424 20.2053 22.0312 20.1578 22.4139C20.1103 22.7966 19.992 23.1656 19.8097 23.5L12.5893 36.7167L1.20337 15.8625C0.0550878 19.4011 -0.277863 23.1786 0.232203 26.8808C0.74227 30.5829 2.08061 34.1028 4.13592 37.1476C6.19122 40.1924 8.90409 42.6741 12.0489 44.3863C15.1937 46.0985 18.6795 46.9918 22.2164 46.9918C25.7534 46.9918 29.2392 46.0985 32.384 44.3863C35.5288 42.6741 38.2417 40.1924 40.297 37.1476C42.3523 34.1028 43.6906 30.5829 44.2007 26.8808C44.7108 23.1786 44.3778 19.4011 43.2295 15.8625V15.8487Z" fill="url(#paint0_linear_9715_1367)"/>
</g>
<defs>
<linearGradient id="paint0_linear_9715_1367" x1="11.2711" y1="43.9547" x2="35.4134" y2="4.42178" gradientUnits="userSpaceOnUse">
<stop stop-color="#0071FD"/>
<stop offset="1" stop-color="#00E1FD"/>
</linearGradient>
<clipPath id="clip0_9715_1367">
<rect width="186" height="47" fill="white"/>
</clipPath>
</defs>
</svg>
